Topmarks-Book.ufo
<glyph name="numbersign" format="1">
  <advance width="1341.9"/>
  <unicode hex="0023"/>
  <outline>
    <contour>
      <point x="226.0" y="64.6" type="line"/>
      <point x="374.6" y="64.6" type="line"/>
      <point x="458.0" y="497.0" type="line"/>
      <point x="723.5" y="497.0" type="line"/>
      <point x="642.2" y="64.6" type="line"/>
      <point x="789.7" y="64.6" type="line"/>
      <point x="874.1" y="497.0" type="line"/>
      <point x="1138.6" y="497.0" type="line"/>
      <point x="1152.9" y="625.1" type="line"/>
      <point x="896.5" y="625.1" type="line"/>
      <point x="948.4" y="905.0" type="line"/>
      <point x="1202.7" y="905.0" type="line"/>
      <point x="1217.0" y="1031.1" type="line"/>
      <point x="971.8" y="1031.1" type="line"/>
      <point x="1051.2" y="1448.3" type="line"/>
      <point x="902.6" y="1448.3" type="line"/>
      <point x="825.2" y="1031.1" type="line"/>
      <point x="559.7" y="1031.1" type="line"/>
      <point x="638.1" y="1448.3" type="line"/>
      <point x="489.5" y="1448.3" type="line"/>
      <point x="409.1" y="1031.1" type="line"/>
      <point x="134.5" y="1031.1" type="line"/>
      <point x="121.2" y="905.0" type="line"/>
      <point x="386.8" y="905.0" type="line"/>
      <point x="369.5" y="810.4"/>
      <point x="352.2" y="720.8"/>
      <point x="335.9" y="625.1" type="curve"/>
      <point x="66.3" y="625.1" type="line"/>
      <point x="55.1" y="497.0" type="line"/>
      <point x="311.5" y="497.0" type="line"/>
    </contour>
    <contour>
      <point x="480.4" y="625.1" type="line"/>
      <point x="535.4" y="905.0" type="line"/>
      <point x="800.9" y="905.0" type="line"/>
      <point x="749.0" y="625.1" type="line"/>
    </contour>
  </outline>
</glyph>
<glyph name="dollar" format="1">
  <advance width="1333.6"/>
  <unicode hex="0024"/>
  <outline>
    <contour>
      <point x="567.8" y="-185.1" type="line"/>
      <point x="693.0" y="-185.1" type="line"/>
      <point x="689.9" y="-21.3" type="line"/>
      <point x="747.9" y="-16.1"/>
      <point x="803.8" y="-5.0"/>
      <point x="855.7" y="14.3" type="curve" smooth="yes"/>
      <point x="996.1" y="65.2"/>
      <point x="1121.2" y="169.9"/>
      <point x="1121.2" y="357.1" type="curve" smooth="yes"/>
      <point x="1121.2" y="475.2"/>
      <point x="1078.5" y="546.4"/>
      <point x="1011.4" y="604.4" type="curve" smooth="yes"/>
      <point x="925.9" y="678.7"/>
      <point x="815.0" y="724.5"/>
      <point x="689.9" y="773.3" type="curve"/>
      <point x="691.9" y="1311.5" type="line"/>
      <point x="817.0" y="1307.5"/>
      <point x="915.7" y="1272.9"/>
      <point x="987.0" y="1208.8" type="curve"/>
      <point x="1036.8" y="1339.0" type="line"/>
      <point x="955.4" y="1408.2"/>
      <point x="834.3" y="1450.9"/>
      <point x="690.9" y="1453.9" type="curve"/>
      <point x="687.8" y="1592.3" type="line"/>
      <point x="561.7" y="1592.3" type="line"/>
      <point x="565.8" y="1452.0" type="line"/>
      <point x="450.8" y="1442.9"/>
      <point x="353.1" y="1390.9"/>
      <point x="285.9" y="1327.8" type="curve" smooth="yes"/>
      <point x="220.8" y="1265.8"/>
      <point x="161.9" y="1174.2"/>
      <point x="161.9" y="1055.1" type="curve" smooth="yes"/>
      <point x="161.9" y="998.2"/>
      <point x="173.1" y="950.3"/>
      <point x="194.4" y="909.7" type="curve" smooth="yes"/>
      <point x="266.7" y="775.4"/>
      <point x="419.3" y="714.4"/>
      <point x="565.8" y="649.2" type="curve"/>
      <point x="562.6" y="119.1" type="line"/>
      <point x="450.7" y="124.2"/>
      <point x="353.2" y="166.0"/>
      <point x="277.8" y="216.8" type="curve"/>
      <point x="228.0" y="80.4" type="line"/>
      <point x="318.5" y="15.3"/>
      <point x="422.3" y="-23.4"/>
      <point x="563.7" y="-26.4" type="curve"/>
    </contour>
    <contour>
      <point x="687.8" y="123.1" type="curve"/>
      <point x="691.9" y="605.5" type="line"/>
      <point x="800.8" y="558.7"/>
      <point x="939.2" y="505.7"/>
      <point x="939.2" y="354.1" type="curve" smooth="yes"/>
      <point x="939.2" y="320.6"/>
      <point x="932.0" y="291.1"/>
      <point x="918.8" y="264.6" type="curve" smooth="yes"/>
      <point x="878.2" y="185.3"/>
      <point x="793.6" y="137.4"/>
    </contour>
    <contour>
      <point x="563.7" y="822.1" type="line"/>
      <point x="454.8" y="862.8"/>
      <point x="354.2" y="918.8"/>
      <point x="354.2" y="1067.4" type="curve" smooth="yes"/>
      <point x="354.2" y="1203.7"/>
      <point x="443.7" y="1290.1"/>
      <point x="565.8" y="1305.4" type="curve"/>
    </contour>
  </outline>
</glyph>
<glyph name="percent" format="1">
  <advance width="2136.0"/>
  <unicode hex="0025"/>
  <outline>
    <contour>
      <point x="539.0" y="696.3" type="curve" smooth="yes"/>
      <point x="594.9" y="696.3"/>
      <point x="644.7" y="706.6"/>
      <point x="689.5" y="726.9" type="curve" smooth="yes"/>
      <point x="814.6" y="783.9"/>
      <point x="902.1" y="906.0"/>
      <point x="902.1" y="1085.0" type="curve" smooth="yes"/>
      <point x="902.1" y="1314.9"/>
      <point x="776.0" y="1470.6"/>
      <point x="545.0" y="1470.6" type="curve" smooth="yes"/>
      <point x="489.1" y="1470.6"/>
      <point x="438.2" y="1461.4"/>
      <point x="393.4" y="1441.1" type="curve" smooth="yes"/>
      <point x="267.3" y="1385.1"/>
      <point x="180.8" y="1260.0"/>
      <point x="180.8" y="1080.9" type="curve" smooth="yes"/>
      <point x="180.8" y="1027.0"/>
      <point x="188.9" y="976.2"/>
      <point x="205.2" y="929.4" type="curve" smooth="yes"/>
      <point x="250.9" y="795.1"/>
      <point x="360.0" y="696.3"/>
    </contour>
    <contour>
      <point x="1484.1" y="-29.0" type="curve" smooth="yes"/>
      <point x="1540.0" y="-29.0"/>
      <point x="1589.9" y="-18.9"/>
      <point x="1634.7" y="1.5" type="curve" smooth="yes"/>
      <point x="1759.8" y="58.4"/>
      <point x="1847.4" y="181.6"/>
      <point x="1847.4" y="360.6" type="curve" smooth="yes"/>
      <point x="1847.4" y="590.5"/>
      <point x="1721.2" y="746.2"/>
      <point x="1490.2" y="746.2" type="curve" smooth="yes"/>
      <point x="1434.3" y="746.2"/>
      <point x="1383.4" y="736.1"/>
      <point x="1338.6" y="715.7" type="curve" smooth="yes"/>
      <point x="1212.5" y="658.8"/>
      <point x="1126.0" y="535.5"/>
      <point x="1126.0" y="355.5" type="curve" smooth="yes"/>
      <point x="1126.0" y="301.5"/>
      <point x="1134.1" y="250.7"/>
      <point x="1150.4" y="204.0" type="curve" smooth="yes"/>
      <point x="1197.2" y="69.6"/>
      <point x="1305.1" y="-29.0"/>
    </contour>
    <contour>
      <point x="543.0" y="811.3" type="curve" smooth="yes"/>
      <point x="392.4" y="811.3"/>
      <point x="327.3" y="931.4"/>
      <point x="327.3" y="1082.0" type="curve" smooth="yes"/>
      <point x="327.3" y="1231.5"/>
      <point x="393.4" y="1356.6"/>
      <point x="544.0" y="1356.6" type="curve" smooth="yes"/>
      <point x="579.6" y="1356.6"/>
      <point x="612.2" y="1349.5"/>
      <point x="638.7" y="1335.3" type="curve" smooth="yes"/>
      <point x="716.9" y="1293.6"/>
      <point x="756.7" y="1205.1"/>
      <point x="756.7" y="1086.0" type="curve" smooth="yes"/>
      <point x="756.7" y="937.5"/>
      <point x="691.5" y="811.3"/>
    </contour>
    <contour>
      <point x="1487.1" y="85.9" type="curve" smooth="yes"/>
      <point x="1450.5" y="85.9"/>
      <point x="1417.9" y="93.0"/>
      <point x="1391.5" y="107.3" type="curve" smooth="yes"/>
      <point x="1313.1" y="149.0"/>
      <point x="1272.5" y="236.5"/>
      <point x="1272.5" y="354.6" type="curve" smooth="yes"/>
      <point x="1272.5" y="504.1"/>
      <point x="1338.6" y="631.3"/>
      <point x="1489.2" y="631.3" type="curve" smooth="yes"/>
      <point x="1637.7" y="631.3"/>
      <point x="1700.8" y="511.2"/>
      <point x="1700.8" y="361.6" type="curve" smooth="yes"/>
      <point x="1700.8" y="213.1"/>
      <point x="1636.7" y="85.9"/>
    </contour>
    <contour>
      <point x="457.5" y="-6.7" type="line"/>
      <point x="614.2" y="-6.7" type="line"/>
      <point x="1534.9" y="1459.4" type="line"/>
      <point x="1377.3" y="1459.4" type="line"/>
    </contour>
  </outline>
</glyph>
<glyph name="quotesingle" format="1">
  <advance width="596.2"/>
  <unicode hex="0027"/>
  <outline>
    <contour>
      <point x="226.0" y="1064.3" type="line"/>
      <point x="358.3" y="1064.3" type="line"/>
      <point x="358.3" y="1534.3" type="line"/>
      <point x="189.4" y="1534.3" type="line"/>
    </contour>
  </outline>
</glyph>
<glyph name="asterisk" format="1">
  <advance width="1311.6"/>
  <unicode hex="002A"/>
  <outline>
    <contour>
      <point x="801.6" y="797.6" type="line"/>
      <point x="929.8" y="871.9" type="line"/>
      <point x="725.3" y="1127.3" type="line"/>
      <point x="992.9" y="1216.8" type="line"/>
      <point x="927.7" y="1343.9" type="line"/>
      <point x="688.7" y="1220.8" type="line"/>
      <point x="688.7" y="1524.0" type="line"/>
      <point x="544.2" y="1524.0" type="line"/>
      <point x="557.4" y="1422.3"/>
      <point x="572.7" y="1317.5"/>
      <point x="585.9" y="1215.7" type="curve"/>
      <point x="297.0" y="1340.9" type="line"/>
      <point x="275.6" y="1203.5" type="line"/>
      <point x="553.4" y="1124.2" type="line"/>
      <point x="359.0" y="882.0" type="line"/>
      <point x="485.2" y="805.7" type="line"/>
      <point x="640.9" y="1068.2" type="line"/>
    </contour>
  </outline>
</glyph>
<glyph name="plus" format="1">
  <advance width="1295.5"/>
  <unicode hex="002B"/>
  <outline>
    <contour>
      <point x="570.4" y="192.7" type="line"/>
      <point x="722.0" y="192.7" type="line"/>
      <point x="722.0" y="668.0" type="line"/>
      <point x="1158.9" y="668.0" type="line"/>
      <point x="1158.9" y="809.5" type="line"/>
      <point x="724.0" y="809.5" type="line"/>
      <point x="724.0" y="1280.4" type="line"/>
      <point x="573.4" y="1280.4" type="line"/>
      <point x="573.4" y="809.5" type="line"/>
      <point x="136.6" y="809.5" type="line"/>
      <point x="136.6" y="668.0" type="line"/>
      <point x="570.4" y="668.0" type="line"/>
    </contour>
  </outline>
</glyph>
<glyph name="comma" format="1">
  <advance width="538.2"/>
  <unicode hex="002C"/>
  <outline>
    <contour>
      <point x="76.0" y="-263.5" type="line"/>
      <point x="212.3" y="-263.5" type="line"/>
      <point x="378.0" y="207.6" type="line"/>
      <point x="184.8" y="207.6" type="line"/>
    </contour>
  </outline>
</glyph>
<glyph name="period" format="1">
  <advance width="550.8"/>
  <unicode hex="002E"/>
  <outline>
    <contour>
      <point x="257.8" y="-14.4" type="curve" smooth="yes"/>
      <point x="316.0" y="-14.4"/>
      <point x="371.5" y="27.3"/>
      <point x="371.5" y="96.1" type="curve" smooth="yes"/>
      <point x="371.5" y="156.9"/>
      <point x="330.4" y="207.7"/>
      <point x="258.7" y="207.7" type="curve" smooth="yes"/>
      <point x="200.5" y="207.7"/>
      <point x="145.0" y="165.9"/>
      <point x="145.0" y="97.3" type="curve" smooth="yes"/>
      <point x="145.0" y="36.5"/>
      <point x="186.1" y="-14.4"/>
    </contour>
  </outline>
</glyph>
<glyph name="zero" format="1">
  <advance width="1253.7"/>
  <unicode hex="0030"/>
  <outline>
    <contour>
      <point x="627.1" y="136.7" type="curve" smooth="yes"/>
      <point x="353.5" y="136.7"/>
      <point x="308.7" y="438.0"/>
      <point x="308.7" y="726.9" type="curve" smooth="yes"/>
      <point x="308.7" y="1004.7"/>
      <point x="369.7" y="1323.4"/>
      <point x="627.1" y="1323.4" type="curve" smooth="yes"/>
      <point x="899.6" y="1323.4"/>
      <point x="944.2" y="1015.5"/>
      <point x="944.2" y="726.9" type="curve" smooth="yes"/>
      <point x="944.2" y="453.3"/>
      <point x="879.8" y="136.7"/>
    </contour>
    <contour>
      <point x="622.6" y="-21.9" type="curve" smooth="yes"/>
      <point x="998.2" y="-21.9"/>
      <point x="1137.5" y="336.6"/>
      <point x="1137.5" y="726.9" type="curve" smooth="yes"/>
      <point x="1137.5" y="1137.6"/>
      <point x="1026.1" y="1482.1"/>
      <point x="627.1" y="1482.1" type="curve" smooth="yes"/>
      <point x="246.4" y="1482.1"/>
      <point x="116.2" y="1125.0"/>
      <point x="116.2" y="726.9" type="curve" smooth="yes"/>
      <point x="116.2" y="331.2"/>
      <point x="239.2" y="-21.9"/>
    </contour>
  </outline>
</glyph>
<glyph name="one" format="1">
  <advance width="1222.1"/>
  <unicode hex="0031"/>
  <outline>
    <contour>
      <point x="636.5" y="0.0" type="line"/>
      <point x="818.1" y="0.0" type="line"/>
      <point x="818.1" y="1455.2" type="line"/>
      <point x="643.4" y="1455.2" type="line"/>
      <point x="575.5" y="1404.2"/>
      <point x="451.6" y="1328.4"/>
      <point x="335.6" y="1275.5" type="curve"/>
      <point x="378.5" y="1140.5" type="line"/>
      <point x="484.5" y="1184.5"/>
      <point x="570.5" y="1232.4"/>
      <point x="636.5" y="1282.5" type="curve"/>
    </contour>
  </outline>
</glyph>
<glyph name="three" format="1">
  <advance width="1252.8"/>
  <unicode hex="0033"/>
  <outline>
    <contour>
      <point x="607.4" y="-22.0" type="curve" smooth="yes"/>
      <point x="887.9" y="-22.0"/>
      <point x="1114.5" y="115.5"/>
      <point x="1114.5" y="397.7" type="curve" smooth="yes"/>
      <point x="1114.5" y="619.0"/>
      <point x="963.6" y="725.7"/>
      <point x="791.0" y="761.6" type="curve"/>
      <point x="941.5" y="805.7"/>
      <point x="1074.7" y="906.2"/>
      <point x="1074.7" y="1106.7" type="curve" smooth="yes"/>
      <point x="1074.7" y="1355.8"/>
      <point x="856.7" y="1481.7"/>
      <point x="608.9" y="1481.7" type="curve" smooth="yes"/>
      <point x="402.7" y="1481.7"/>
      <point x="233.2" y="1396.1"/>
      <point x="166.8" y="1246.8" type="curve"/>
      <point x="270.5" y="1149.6" type="line"/>
      <point x="337.4" y="1258.6"/>
      <point x="442.1" y="1322.7"/>
      <point x="600.7" y="1322.7" type="curve" smooth="yes"/>
      <point x="760.2" y="1322.7"/>
      <point x="881.3" y="1263.3"/>
      <point x="881.3" y="1102.8" type="curve" smooth="yes"/>
      <point x="881.3" y="885.1"/>
      <point x="716.7" y="832.2"/>
      <point x="502.8" y="832.2" type="curve" smooth="yes"/>
      <point x="438.0" y="832.2" type="line"/>
      <point x="440.0" y="679.1" type="line"/>
      <point x="518.8" y="681.1" type="line" smooth="yes"/>
      <point x="744.5" y="687.4"/>
      <point x="927.1" y="626.0"/>
      <point x="927.1" y="400.7" type="curve" smooth="yes"/>
      <point x="927.1" y="220.6"/>
      <point x="776.1" y="128.0"/>
      <point x="590.3" y="128.0" type="curve" smooth="yes"/>
      <point x="421.9" y="128.0"/>
      <point x="299.8" y="205.7"/>
      <point x="242.5" y="332.9" type="curve"/>
      <point x="156.7" y="222.2" type="line"/>
      <point x="200.8" y="53.9"/>
      <point x="401.5" y="-22.0"/>
    </contour>
  </outline>
</glyph>
<glyph name="five" format="1">
  <advance width="1252.8"/>
  <unicode hex="0035"/>
  <outline>
    <contour>
      <point x="186.2" y="171.5" type="line"/>
      <point x="265.8" y="52.2"/>
      <point x="418.6" y="-23.0"/>
      <point x="606.6" y="-23.0" type="curve" smooth="yes"/>
      <point x="899.5" y="-22.7"/>
      <point x="1109.2" y="162.0"/>
      <point x="1109.2" y="447.4" type="curve" smooth="yes"/>
      <point x="1109.2" y="710.0"/>
      <point x="947.2" y="907.4"/>
      <point x="663.6" y="907.4" type="curve" smooth="yes"/>
      <point x="530.3" y="907.4"/>
      <point x="446.7" y="851.7"/>
      <point x="398.0" y="804.2" type="curve"/>
      <point x="412.1" y="1300.4" type="line"/>
      <point x="996.6" y="1300.4" type="line"/>
      <point x="996.6" y="1450.8" type="line"/>
      <point x="242.2" y="1450.8" type="line"/>
      <point x="242.2" y="678.2" type="line"/>
      <point x="418.1" y="656.6" type="line"/>
      <point x="461.4" y="717.9"/>
      <point x="546.0" y="755.5"/>
      <point x="642.3" y="755.5" type="curve" smooth="yes"/>
      <point x="816.8" y="755.3"/>
      <point x="925.7" y="646.2"/>
      <point x="925.7" y="452.7" type="curve" smooth="yes"/>
      <point x="925.7" y="274.0"/>
      <point x="823.4" y="126.7"/>
      <point x="604.2" y="126.7" type="curve" smooth="yes"/>
      <point x="459.1" y="126.8"/>
      <point x="340.1" y="194.5"/>
      <point x="268.1" y="295.4" type="curve"/>
    </contour>
  </outline>
</glyph>
<glyph name="six" format="1">
  <advance width="1252.8"/>
  <unicode hex="0036"/>
  <outline>
    <contour>
      <point x="658.9" y="-23.3" type="curve" smooth="yes"/>
      <point x="917.5" y="-23.3"/>
      <point x="1127.2" y="170.2"/>
      <point x="1127.2" y="463.1" type="curve" smooth="yes"/>
      <point x="1127.2" y="733.7"/>
      <point x="941.3" y="944.7"/>
      <point x="673.2" y="944.7" type="curve" smooth="yes"/>
      <point x="563.7" y="944.7"/>
      <point x="388.4" y="889.9"/>
      <point x="325.5" y="775.6" type="curve"/>
      <point x="380.3" y="1076.6"/>
      <point x="584.8" y="1302.8"/>
      <point x="931.1" y="1353.7" type="curve"/>
      <point x="891.0" y="1492.7" type="line"/>
      <point x="275.7" y="1391.3"/>
      <point x="114.3" y="884.8"/>
      <point x="141.7" y="496.8" type="curve" smooth="yes"/>
      <point x="160.7" y="229.0"/>
      <point x="313.8" y="-23.3"/>
    </contour>
    <contour>
      <point x="656.0" y="124.8" type="curve" smooth="yes"/>
      <point x="439.3" y="124.8"/>
      <point x="314.0" y="288.8"/>
      <point x="314.0" y="466.3" type="curve" smooth="yes"/>
      <point x="314.0" y="658.0"/>
      <point x="454.6" y="802.6"/>
      <point x="642.3" y="802.6" type="curve" smooth="yes"/>
      <point x="849.2" y="802.6"/>
      <point x="953.3" y="650.4"/>
      <point x="953.3" y="457.1" type="curve" smooth="yes"/>
      <point x="953.3" y="254.5"/>
      <point x="835.7" y="124.8"/>
    </contour>
  </outline>
</glyph>
<glyph name="eight" format="1">
  <advance width="1252.8"/>
  <unicode hex="0038"/>
  <outline>
    <contour>
      <point x="626.5" y="-22.0" type="curve" smooth="yes"/>
      <point x="904.0" y="-22.0"/>
      <point x="1121.4" y="100.1"/>
      <point x="1121.4" y="376.7" type="curve" smooth="yes"/>
      <point x="1121.4" y="589.9"/>
      <point x="985.4" y="713.2"/>
      <point x="810.3" y="766.2" type="curve"/>
      <point x="965.1" y="815.2"/>
      <point x="1086.8" y="927.4"/>
      <point x="1086.8" y="1118.7" type="curve" smooth="yes"/>
      <point x="1086.8" y="1340.1"/>
      <point x="900.9" y="1481.7"/>
      <point x="626.5" y="1481.7" type="curve" smooth="yes"/>
      <point x="387.5" y="1481.7"/>
      <point x="166.3" y="1377.2"/>
      <point x="166.3" y="1118.7" type="curve" smooth="yes"/>
      <point x="166.3" y="926.4"/>
      <point x="287.7" y="815.2"/>
      <point x="442.5" y="766.2" type="curve"/>
      <point x="267.6" y="713.2"/>
      <point x="131.5" y="589.9"/>
      <point x="131.5" y="376.7" type="curve" smooth="yes"/>
      <point x="131.5" y="132.2"/>
      <point x="337.9" y="-22.0"/>
    </contour>
    <contour>
      <point x="627.0" y="126.6" type="curve" smooth="yes"/>
      <point x="450.6" y="126.6"/>
      <point x="317.2" y="214.6"/>
      <point x="317.2" y="389.1" type="curve" smooth="yes"/>
      <point x="317.2" y="557.7"/>
      <point x="460.2" y="654.0"/>
      <point x="627.0" y="687.2" type="curve"/>
      <point x="780.8" y="656.0"/>
      <point x="936.6" y="571.4"/>
      <point x="936.6" y="389.1" type="curve" smooth="yes"/>
      <point x="936.6" y="222.6"/>
      <point x="813.2" y="126.6"/>
    </contour>
    <contour>
      <point x="627.0" y="842.3" type="curve"/>
      <point x="473.0" y="870.6"/>
      <point x="346.2" y="949.2"/>
      <point x="346.2" y="1113.8" type="curve" smooth="yes"/>
      <point x="346.2" y="1253.4"/>
      <point x="462.3" y="1338.5"/>
      <point x="627.0" y="1338.5" type="curve" smooth="yes"/>
      <point x="779.9" y="1338.5"/>
      <point x="907.5" y="1265.9"/>
      <point x="907.5" y="1113.8" type="curve" smooth="yes"/>
      <point x="907.5" y="949.2"/>
      <point x="780.8" y="870.6"/>
    </contour>
  </outline>
</glyph>
<glyph name="nine" format="1">
  <advance width="1252.8"/>
  <unicode hex="0039"/>
  <outline>
    <contour>
      <point x="539.7" y="-81.6" type="line"/>
      <point x="999.5" y="588.0" type="line" smooth="yes"/>
      <point x="1089.7" y="719.7"/>
      <point x="1142.4" y="863.9"/>
      <point x="1142.4" y="989.8" type="curve" smooth="yes"/>
      <point x="1142.4" y="1249.5"/>
      <point x="973.6" y="1481.7"/>
      <point x="628.5" y="1481.7" type="curve" smooth="yes"/>
      <point x="342.9" y="1481.7"/>
      <point x="123.9" y="1285.1"/>
      <point x="123.9" y="993.9" type="curve" smooth="yes"/>
      <point x="123.9" y="723.4"/>
      <point x="309.3" y="514.1"/>
      <point x="614.5" y="514.1" type="curve" smooth="yes"/>
      <point x="719.3" y="514.1"/>
      <point x="789.4" y="563.1"/>
      <point x="797.8" y="569.1" type="curve"/>
      <point x="396.6" y="-1.9" type="line"/>
    </contour>
    <contour>
      <point x="636.2" y="656.0" type="curve" smooth="yes"/>
      <point x="393.3" y="656.0"/>
      <point x="302.4" y="819.1"/>
      <point x="302.4" y="994.4" type="curve" smooth="yes"/>
      <point x="302.4" y="1202.5"/>
      <point x="433.5" y="1327.7"/>
      <point x="640.2" y="1327.7" type="curve" smooth="yes"/>
      <point x="865.9" y="1327.7"/>
      <point x="970.2" y="1199.6"/>
      <point x="970.2" y="992.4" type="curve" smooth="yes"/>
      <point x="970.2" y="791.8"/>
      <point x="855.3" y="656.0"/>
    </contour>
  </outline>
</glyph>
<glyph name="colon" format="1">
  <advance width="581.1"/>
  <unicode hex="003A"/>
  <outline>
    <contour>
      <point x="171.1" y="-11.9" type="line"/>
      <point x="391.9" y="-11.9" type="line"/>
      <point x="391.9" y="201.8" type="line"/>
      <point x="171.1" y="201.8" type="line"/>
    </contour>
    <contour>
      <point x="171.1" y="854.9" type="line"/>
      <point x="391.9" y="854.9" type="line"/>
      <point x="391.9" y="1068.6" type="line"/>
      <point x="171.1" y="1068.6" type="line"/>
    </contour>
  </outline>
</glyph>
<glyph name="semicolon" format="1">
  <advance width="581.1"/>
  <unicode hex="003B"/>
  <outline>
    <contour>
      <point x="107.6" y="-275.5" type="line"/>
      <point x="240.9" y="-275.5" type="line"/>
      <point x="406.7" y="195.6" type="line"/>
      <point x="215.5" y="195.6" type="line"/>
    </contour>
    <contour>
      <point x="167.7" y="818.1" type="line"/>
      <point x="388.5" y="818.1" type="line"/>
      <point x="388.5" y="1031.8" type="line"/>
      <point x="173.2" y="1031.8" type="line"/>
    </contour>
  </outline>
</glyph>
<glyph name="less" format="1">
  <advance width="1568.9"/>
  <unicode hex="003C"/>
  <outline>
    <contour>
      <point x="1239.2" y="51.6" type="line"/>
      <point x="1239.2" y="203.6" type="line"/>
      <point x="454.6" y="555.4" type="line"/>
      <point x="1243.2" y="917.3" type="line"/>
      <point x="1243.2" y="1070.1" type="line"/>
      <point x="235.7" y="598.4" type="line"/>
      <point x="235.7" y="511.4" type="line"/>
    </contour>
  </outline>
</glyph>
<glyph name="question" format="1">
  <advance width="1024.6"/>
  <unicode hex="003F"/>
  <outline>
    <contour>
      <point x="345.0" y="371.1" type="curve"/>
      <point x="468.9" y="371.1" type="line"/>
      <point x="475.0" y="685.4"/>
      <point x="888.8" y="761.284848485"/>
      <point x="888.8" y="1132.4" type="curve" smooth="yes"/>
      <point x="888.8" y="1340.9"/>
      <point x="734.5" y="1481.7"/>
      <point x="456.9" y="1481.7" type="curve" smooth="yes"/>
      <point x="351.2" y="1481.7"/>
      <point x="254.4" y="1451.7"/>
      <point x="172.1" y="1412.3" type="curve"/>
      <point x="175.2" y="1255.3" type="line"/>
      <point x="250.918503628" y="1296.59993022"/>
      <point x="357.62224541" y="1322.91128641"/>
      <point x="454.631040832" y="1321.54965391" type="curve" smooth="yes"/>
      <point x="589.456334905" y="1319.66458277"/>
      <point x="708.8" y="1264.38252534"/>
      <point x="708.8" y="1122.4" type="curve" smooth="yes"/>
      <point x="708.8" y="805.331572418"/>
      <point x="345.0" y="743.3"/>
    </contour>
    <contour>
      <point x="412.3" y="0.0" type="curve" smooth="yes"/>
      <point x="469.8" y="0.0"/>
      <point x="524.8" y="41.4"/>
      <point x="524.8" y="109.3" type="curve" smooth="yes"/>
      <point x="524.8" y="169.3"/>
      <point x="484.3" y="219.7"/>
      <point x="413.4" y="219.7" type="curve" smooth="yes"/>
      <point x="355.9" y="219.7"/>
      <point x="300.8" y="178.3"/>
      <point x="300.8" y="110.4" type="curve" smooth="yes"/>
      <point x="300.8" y="50.4"/>
      <point x="341.3" y="0.0"/>
    </contour>
  </outline>
</glyph>
<glyph name="A" format="1">
  <advance width="1434.9"/>
  <unicode hex="0041"/>
  <outline>
    <contour>
      <point x="19.3" y="0.0" type="line"/>
      <point x="214.1" y="0.0" type="line"/>
      <point x="366.1" y="389.0" type="line"/>
      <point x="1057.4" y="389.0" type="line"/>
      <point x="1210.8" y="0.0" type="line"/>
      <point x="1411.2" y="0.0" type="line"/>
      <point x="810.5" y="1455.2" type="line"/>
      <point x="619.7" y="1455.2" type="line"/>
    </contour>
    <contour>
      <point x="422.1" y="531.2" type="line"/>
      <point x="604.8" y="998.4" type="line"/>
      <point x="711.3" y="1280.3" type="line"/>
      <point x="816.5" y="999.3" type="line"/>
      <point x="1001.6" y="531.2" type="line"/>
    </contour>
  </outline>
</glyph>
<glyph name="B" format="1">
  <advance width="1316.4"/>
  <unicode hex="0042"/>
  <outline>
    <contour>
      <point x="175.6" y="0.0" type="line"/>
      <point x="660.5" y="0.0" type="line" smooth="yes"/>
      <point x="1014.2" y="0.0"/>
      <point x="1224.5" y="115.3"/>
      <point x="1224.5" y="404.7" type="curve" smooth="yes"/>
      <point x="1224.5" y="625.8"/>
      <point x="1120.0" y="731.0"/>
      <point x="920.6" y="769.6" type="curve"/>
      <point x="1081.5" y="823.0"/>
      <point x="1156.1" y="918.2"/>
      <point x="1156.1" y="1104.5" type="curve" smooth="yes"/>
      <point x="1156.1" y="1355.8"/>
      <point x="973.6" y="1455.2"/>
      <point x="594.5" y="1455.2" type="curve" smooth="yes"/>
      <point x="175.6" y="1455.2" type="line"/>
    </contour>
    <contour>
      <point x="356.3" y="153.3" type="line"/>
      <point x="356.3" y="681.3" type="line"/>
      <point x="611.5" y="681.3" type="line" smooth="yes"/>
      <point x="915.3" y="681.3"/>
      <point x="1036.1" y="600.8"/>
      <point x="1036.1" y="408.7" type="curve" smooth="yes"/>
      <point x="1036.1" y="225.7"/>
      <point x="920.3" y="153.3"/>
      <point x="654.4" y="153.3" type="curve" smooth="yes"/>
    </contour>
    <contour>
      <point x="356.3" y="826.6" type="line"/>
      <point x="356.3" y="1302.0" type="line"/>
      <point x="594.5" y="1302.0" type="line" smooth="yes"/>
      <point x="864.6" y="1302.0"/>
      <point x="968.6" y="1238.2"/>
      <point x="968.6" y="1075.5" type="curve" smooth="yes"/>
      <point x="968.6" y="898.9"/>
      <point x="858.7" y="826.6"/>
      <point x="581.5" y="826.6" type="curve" smooth="yes"/>
    </contour>
  </outline>
</glyph>
<glyph name="C" format="1">
  <advance width="1400.0"/>
  <unicode hex="0043"/>
  <outline>
    <contour>
      <point x="824.4" y="-22.0" type="curve" smooth="yes"/>
      <point x="1022.8" y="-22.0"/>
      <point x="1186.6" y="30.3"/>
      <point x="1304.6" y="125.6" type="curve"/>
      <point x="1245.5" y="273.4" type="line"/>
      <point x="1144.7" y="186.3"/>
      <point x="1007.5" y="137.0"/>
      <point x="831.2" y="137.0" type="curve" smooth="yes"/>
      <point x="480.4" y="137.0"/>
      <point x="307.1" y="385.2"/>
      <point x="307.1" y="724.4" type="curve" smooth="yes"/>
      <point x="307.1" y="1071.6"/>
      <point x="496.7" y="1322.7"/>
      <point x="845.7" y="1322.7" type="curve" smooth="yes"/>
      <point x="981.6" y="1322.7"/>
      <point x="1110.4" y="1274.0"/>
      <point x="1210.6" y="1197.2" type="curve"/>
      <point x="1290.5" y="1330.8" type="line"/>
      <point x="1180.3" y="1413.6"/>
      <point x="1042.8" y="1481.7"/>
      <point x="828.3" y="1481.7" type="curve" smooth="yes"/>
      <point x="396.7" y="1481.7"/>
      <point x="115.2" y="1168.4"/>
      <point x="115.2" y="725.4" type="curve" smooth="yes"/>
      <point x="115.2" y="285.7"/>
      <point x="381.2" y="-22.0"/>
    </contour>
  </outline>
</glyph>
<glyph name="D" format="1">
  <advance width="1534.1"/>
  <unicode hex="0044"/>
  <outline>
    <contour>
      <point x="357.0" y="153.2" type="line"/>
      <point x="357.0" y="1302.0" type="line"/>
      <point x="520.7" y="1302.0" type="line" smooth="yes"/>
      <point x="968.2" y="1302.0"/>
      <point x="1228.5" y="1161.8"/>
      <point x="1228.5" y="722.4" type="curve" smooth="yes"/>
      <point x="1228.5" y="343.7"/>
      <point x="998.2" y="153.2"/>
      <point x="612.1" y="153.2" type="curve" smooth="yes"/>
    </contour>
    <contour>
      <point x="175.6" y="0.0" type="line"/>
      <point x="596.1" y="0.0" type="line" smooth="yes"/>
      <point x="1092.1" y="0.0"/>
      <point x="1419.1" y="239.0"/>
      <point x="1419.1" y="725.4" type="curve" smooth="yes"/>
      <point x="1419.1" y="1269.3"/>
      <point x="1055.3" y="1455.2"/>
      <point x="498.5" y="1455.2" type="curve" smooth="yes"/>
      <point x="175.6" y="1455.2" type="line"/>
    </contour>
  </outline>
</glyph>
<glyph name="E" format="1">
  <advance width="1194.7"/>
  <unicode hex="0045"/>
  <outline>
    <contour>
      <point x="175.6" y="0.0" type="line"/>
      <point x="1096.6" y="0.0" type="line"/>
      <point x="1096.6" y="153.2" type="line"/>
      <point x="356.3" y="153.2" type="line"/>
      <point x="356.3" y="669.0" type="line"/>
      <point x="1008.6" y="669.0" type="line"/>
      <point x="1008.6" y="821.5" type="line"/>
      <point x="356.3" y="821.5" type="line"/>
      <point x="356.3" y="1302.0" type="line"/>
      <point x="1046.6" y="1302.0" type="line"/>
      <point x="1046.6" y="1455.2" type="line"/>
      <point x="175.6" y="1455.2" type="line"/>
    </contour>
  </outline>
</glyph>
<glyph name="G" format="1">
  <advance width="1522.8"/>
  <unicode hex="0047"/>
  <outline>
    <contour>
      <point x="852.9" y="-22.0" type="curve" smooth="yes"/>
      <point x="1050.7" y="-22.0"/>
      <point x="1215.1" y="13.3"/>
      <point x="1358.8" y="80.7" type="curve"/>
      <point x="1358.8" y="758.6" type="line"/>
      <point x="822.8" y="758.6" type="line"/>
      <point x="822.8" y="606.7" type="line"/>
      <point x="1179.6" y="606.7" type="line"/>
      <point x="1179.6" y="184.9" type="line"/>
      <point x="1091.6" y="149.6"/>
      <point x="986.2" y="137.0"/>
      <point x="866.8" y="137.0" type="curve" smooth="yes"/>
      <point x="501.2" y="137.0"/>
      <point x="302.7" y="348.7"/>
      <point x="302.7" y="712.7" type="curve" smooth="yes"/>
      <point x="302.7" y="1065.4"/>
      <point x="507.7" y="1322.7"/>
      <point x="862.6" y="1322.7" type="curve" smooth="yes"/>
      <point x="1029.3" y="1322.7"/>
      <point x="1166.5" y="1278.0"/>
      <point x="1260.9" y="1192.7" type="curve"/>
      <point x="1333.9" y="1316.9" type="line"/>
      <point x="1216.2" y="1429.5"/>
      <point x="1071.7" y="1481.7"/>
      <point x="865.2" y="1481.7" type="curve" smooth="yes"/>
      <point x="399.3" y="1481.7"/>
      <point x="115.2" y="1164.4"/>
      <point x="115.2" y="699.6" type="curve" smooth="yes"/>
      <point x="115.2" y="240.7"/>
      <point x="387.0" y="-22.0"/>
    </contour>
  </outline>
</glyph>
<glyph name="H" format="1">
  <advance width="1506.6"/>
  <unicode hex="0048"/>
  <outline>
    <contour>
      <point x="175.6" y="0.0" type="line"/>
      <point x="356.3" y="0.0" type="line"/>
      <point x="356.3" y="670.1" type="line"/>
      <point x="1152.2" y="670.1" type="line"/>
      <point x="1152.2" y="0.0" type="line"/>
      <point x="1331.0" y="0.0" type="line"/>
      <point x="1331.0" y="1455.2" type="line"/>
      <point x="1152.2" y="1455.2" type="line"/>
      <point x="1152.2" y="824.8" type="line"/>
      <point x="356.3" y="824.8" type="line"/>
      <point x="356.3" y="1455.2" type="line"/>
      <point x="175.6" y="1455.2" type="line"/>
    </contour>
  </outline>
</glyph>
<glyph name="I" format="1">
  <advance width="553.5"/>
  <unicode hex="0049"/>
  <outline>
    <contour>
      <point x="186.4" y="0.0" type="line"/>
      <point x="367.1" y="0.0" type="line"/>
      <point x="367.1" y="1455.2" type="line"/>
      <point x="186.4" y="1455.2" type="line"/>
    </contour>
  </outline>
</glyph>
<glyph name="K" format="1">
  <advance width="1256.3"/>
  <unicode hex="004B"/>
  <outline>
    <contour>
      <point x="175.6" y="0.0" type="line"/>
      <point x="356.3" y="0.0" type="line"/>
      <point x="356.3" y="720.6" type="line"/>
      <point x="1023.0" y="0.0" type="line"/>
      <point x="1252.3" y="0.0" type="line"/>
      <point x="548.1" y="764.9" type="line"/>
      <point x="1212.9" y="1455.2" type="line"/>
      <point x="991.0" y="1455.2" type="line"/>
      <point x="356.3" y="798.6" type="line"/>
      <point x="356.3" y="1455.2" type="line"/>
      <point x="175.6" y="1455.2" type="line"/>
    </contour>
  </outline>
</glyph>
<glyph name="M" format="1">
  <advance width="1949.9"/>
  <unicode hex="004D"/>
  <outline>
    <contour>
      <point x="175.6" y="0.0" type="line"/>
      <point x="354.6" y="0.0" type="line"/>
      <point x="354.6" y="1250.6" type="line"/>
      <point x="428.2" y="1084.7" type="line"/>
      <point x="911.4" y="220.9" type="line"/>
      <point x="1037.3" y="220.9" type="line"/>
      <point x="1517.2" y="1072.7" type="line"/>
      <point x="1598.1" y="1233.6" type="line"/>
      <point x="1598.1" y="0.0" type="line"/>
      <point x="1774.3" y="0.0" type="line"/>
      <point x="1774.3" y="1455.2" type="line"/>
      <point x="1552.1" y="1455.2" type="line"/>
      <point x="1061.3" y="597.3" type="line"/>
      <point x="976.4" y="434.9" type="line"/>
      <point x="890.4" y="594.4" type="line"/>
      <point x="411.6" y="1455.2" type="line"/>
      <point x="175.6" y="1455.2" type="line"/>
    </contour>
  </outline>
</glyph>
<glyph name="N" format="1">
  <advance width="1582.6"/>
  <unicode hex="004E"/>
  <outline>
    <contour>
      <point x="175.6" y="0.0" type="line"/>
      <point x="353.5" y="0.0" type="line"/>
      <point x="353.5" y="1224.4" type="line"/>
      <point x="430.4" y="1096.6" type="line"/>
      <point x="1193.0" y="0.0" type="line"/>
      <point x="1407.0" y="0.0" type="line"/>
      <point x="1407.0" y="1455.2" type="line"/>
      <point x="1230.0" y="1455.2" type="line"/>
      <point x="1230.0" y="224.8" type="line"/>
      <point x="1147.1" y="357.8" type="line"/>
      <point x="387.5" y="1455.2" type="line"/>
      <point x="175.6" y="1455.2" type="line"/>
    </contour>
  </outline>
</glyph>
<glyph name="O" format="1">
  <advance width="1669.1"/>
  <unicode hex="004F"/>
  <outline>
    <contour>
      <point x="834.5" y="134.3" type="curve" smooth="yes"/>
      <point x="556.8" y="134.3"/>
      <point x="308.1" y="337.8"/>
      <point x="308.1" y="728.5" type="curve" smooth="yes"/>
      <point x="308.1" y="1119.8"/>
      <point x="556.8" y="1322.7"/>
      <point x="834.5" y="1322.7" type="curve" smooth="yes"/>
      <point x="1112.2" y="1322.7"/>
      <point x="1361.0" y="1119.8"/>
      <point x="1361.0" y="728.5" type="curve" smooth="yes"/>
      <point x="1361.0" y="337.8"/>
      <point x="1112.2" y="134.3"/>
    </contour>
    <contour>
      <point x="834.5" y="-24.7" type="curve" smooth="yes"/>
      <point x="1305.0" y="-24.7"/>
      <point x="1553.9" y="330.0"/>
      <point x="1553.9" y="727.8" type="curve" smooth="yes"/>
      <point x="1553.9" y="1127.6"/>
      <point x="1305.0" y="1481.7"/>
      <point x="834.5" y="1481.7" type="curve" smooth="yes"/>
      <point x="364.0" y="1481.7"/>
      <point x="115.2" y="1127.6"/>
      <point x="115.2" y="727.8" type="curve" smooth="yes"/>
      <point x="115.2" y="330.0"/>
      <point x="364.0" y="-24.7"/>
    </contour>
  </outline>
</glyph>
<glyph name="P" format="1">
  <advance width="1249.8"/>
  <unicode hex="0050"/>
  <outline>
    <contour>
      <point x="175.6" y="0.0" type="line"/>
      <point x="357.0" y="0.0" type="line"/>
      <point x="357.0" y="581.7" type="line"/>
      <point x="596.2" y="581.7" type="line" smooth="yes"/>
      <point x="985.7" y="581.7"/>
      <point x="1182.4" y="728.1"/>
      <point x="1182.4" y="1018.3" type="curve" smooth="yes"/>
      <point x="1182.4" y="1316.0"/>
      <point x="1004.9" y="1455.2"/>
      <point x="571.2" y="1455.2" type="curve" smooth="yes"/>
      <point x="175.6" y="1455.2" type="line"/>
    </contour>
    <contour>
      <point x="357.0" y="736.1" type="line"/>
      <point x="357.0" y="1302.0" type="line"/>
      <point x="595.2" y="1302.0" type="line" smooth="yes"/>
      <point x="881.4" y="1302.0"/>
      <point x="990.0" y="1211.3"/>
      <point x="990.0" y="1016.3" type="curve" smooth="yes"/>
      <point x="990.0" y="830.3"/>
      <point x="864.1" y="736.1"/>
      <point x="615.2" y="736.1" type="curve" smooth="yes"/>
    </contour>
  </outline>
</glyph>
<glyph name="Q" format="1">
  <advance width="1669.1"/>
  <unicode hex="0051"/>
  <outline>
    <contour>
      <point x="1232.3" y="-422.3" type="curve"/>
      <point x="1351.3" y="-300.4" type="line"/>
      <point x="1253.4" y="-209.4"/>
      <point x="1165.4" y="-106.4"/>
      <point x="1102.4" y="23.5" type="curve"/>
      <point x="930.5" y="-13.5" type="line"/>
      <point x="1006.5" y="-176.4"/>
      <point x="1115.5" y="-305.4"/>
    </contour>
    <component base="O"/>
  </outline>
</glyph>
<glyph name="R" format="1">
  <advance width="1327.7"/>
  <unicode hex="0052"/>
  <outline>
    <contour>
      <point x="175.6" y="0.0" type="line"/>
      <point x="356.3" y="0.0" type="line"/>
      <point x="356.3" y="650.6" type="line"/>
      <point x="619.1" y="650.6" type="line" smooth="yes"/>
      <point x="807.8" y="650.6"/>
      <point x="860.3" y="564.7"/>
      <point x="913.1" y="418.8" type="curve" smooth="yes"/>
      <point x="1065.0" y="0.0" type="line"/>
      <point x="1261.9" y="0.0" type="line"/>
      <point x="1100.9" y="409.8" type="line" smooth="yes"/>
      <point x="1046.3" y="549.6"/>
      <point x="1000.9" y="669.0"/>
      <point x="866.7" y="713.4" type="curve"/>
      <point x="1039.1" y="758.1"/>
      <point x="1175.9" y="868.1"/>
      <point x="1175.9" y="1073.5" type="curve" smooth="yes"/>
      <point x="1175.9" y="1402.5"/>
      <point x="885.6" y="1455.2"/>
      <point x="543.1" y="1455.2" type="curve" smooth="yes"/>
      <point x="175.6" y="1455.2" type="line"/>
    </contour>
    <contour>
      <point x="356.3" y="801.2" type="line"/>
      <point x="356.3" y="1302.0" type="line"/>
      <point x="629.1" y="1302.0" type="line" smooth="yes"/>
      <point x="833.6" y="1302.0"/>
      <point x="987.0" y="1256.3"/>
      <point x="987.0" y="1057.6" type="curve" smooth="yes"/>
      <point x="987.0" y="861.8"/>
      <point x="818.0" y="801.2"/>
      <point x="618.2" y="801.2" type="curve" smooth="yes"/>
    </contour>
  </outline>
</glyph>
<glyph name="W" format="1">
  <advance width="2107.6"/>
  <unicode hex="0057"/>
  <outline>
    <contour>
      <point x="1448.1" y="0.0" type="line"/>
      <point x="1661.0" y="0.0" type="line"/>
      <point x="2086.8" y="1455.2" type="line"/>
      <point x="1899.9" y="1455.2" type="line"/>
      <point x="1601.1" y="375.5" type="line"/>
      <point x="1556.1" y="209.6" type="line"/>
      <point x="1506.6" y="371.5" type="line"/>
      <point x="1151.2" y="1455.2" type="line"/>
      <point x="970.4" y="1455.2" type="line"/>
      <point x="612.1" y="375.5" type="line"/>
      <point x="558.5" y="208.6" type="line"/>
      <point x="517.6" y="375.5" type="line"/>
      <point x="213.7" y="1455.2" type="line"/>
      <point x="20.8" y="1455.2" type="line"/>
      <point x="446.7" y="0.9" type="line"/>
      <point x="660.5" y="0.9" type="line"/>
      <point x="1055.3" y="1227.4" type="line"/>
    </contour>
  </outline>
</glyph>
<glyph name="X" format="1">
  <advance width="1312.9"/>
  <unicode hex="0058"/>
  <outline>
    <contour>
      <point x="9.2" y="0.0" type="line"/>
      <point x="220.2" y="0.0" type="line"/>
      <point x="652.9" y="616.8" type="line"/>
      <point x="1086.8" y="0.0" type="line"/>
      <point x="1294.8" y="0.0" type="line"/>
      <point x="773.6" y="739.5" type="line"/>
      <point x="1287.5" y="1455.2" type="line"/>
      <point x="1083.8" y="1455.2" type="line"/>
      <point x="668.1" y="859.1" type="line"/>
      <point x="264.8" y="1455.2" type="line"/>
      <point x="49.2" y="1455.2" type="line"/>
      <point x="549.2" y="741.7" type="line"/>
    </contour>
  </outline>
</glyph>
<glyph name="Y" format="1">
  <advance width="1259.6"/>
  <unicode hex="0059"/>
  <outline>
    <contour>
      <point x="533.5" y="0.0" type="line"/>
      <point x="715.2" y="0.0" type="line"/>
      <point x="715.2" y="584.7" type="line"/>
      <point x="1255.0" y="1455.2" type="line"/>
      <point x="1057.2" y="1455.2" type="line"/>
      <point x="627.3" y="733.1" type="line"/>
      <point x="203.5" y="1455.2" type="line"/>
      <point x="4.6" y="1455.2" type="line"/>
      <point x="533.5" y="581.8" type="line"/>
    </contour>
  </outline>
</glyph>
<glyph name="backslash" format="1">
  <advance width="760.9"/>
  <unicode hex="005C"/>
  <outline>
    <contour>
      <point x="616.3" y="-193.5" type="line"/>
      <point x="786.5" y="-193.5" type="line"/>
      <point x="152.0" y="1450.7" type="line"/>
      <point x="-22.0" y="1450.7" type="line"/>
    </contour>
  </outline>
</glyph>
<glyph name="bracketright" format="1">
  <advance width="675.7"/>
  <unicode hex="005D"/>
  <outline>
    <contour>
      <point x="94.9" y="-256.3" type="line"/>
      <point x="459.5" y="-256.3" type="line"/>
      <point x="459.5" y="1452.9" type="line"/>
      <point x="86.9" y="1452.9" type="line"/>
      <point x="95.9" y="1330.1" type="line"/>
      <point x="286.1" y="1330.1" type="line"/>
      <point x="286.1" y="-133.6" type="line"/>
      <point x="94.9" y="-133.6" type="line"/>
    </contour>
  </outline>
</glyph>
<glyph name="asciicircum" format="1">
  <advance width="1436.9"/>
  <unicode hex="005E"/>
  <outline>
    <contour>
      <point x="175.1" y="552.0" type="line"/>
      <point x="336.1" y="552.0" type="line"/>
      <point x="704.8" y="1251.6" type="line"/>
      <point x="1085.7" y="552.0" type="line"/>
      <point x="1245.6" y="552.0" type="line"/>
      <point x="756.9" y="1433.6" type="line"/>
      <point x="655.9" y="1433.6" type="line"/>
    </contour>
  </outline>
</glyph>
<glyph name="underscore" format="1">
  <advance width="996.0"/>
  <unicode hex="005F"/>
  <outline>
    <contour>
      <point x="-5.5" y="-293.8" type="line"/>
      <point x="997.0" y="-293.8" type="line"/>
      <point x="997.0" y="-165.8" type="line"/>
      <point x="-5.5" y="-165.8" type="line"/>
    </contour>
  </outline>
</glyph>
<glyph name="grave" format="1">
  <advance width="638.1"/>
  <unicode hex="0060"/>
  <outline>
    <contour>
      <point x="322.3" y="1261.2" type="line"/>
      <point x="457.3" y="1261.2" type="line"/>
      <point x="210.4" y="1581.0" type="line"/>
      <point x="-9.5" y="1581.0" type="line"/>
    </contour>
  </outline>
</glyph>
<glyph name="b" format="1">
  <advance width="1221.2"/>
  <unicode hex="0062"/>
  <outline>
    <contour>
      <point x="620.6" y="-22.0" type="curve" smooth="yes"/>
      <point x="937.5" y="-22.0"/>
      <point x="1130.6" y="213.3"/>
      <point x="1130.6" y="543.3" type="curve" smooth="yes"/>
      <point x="1130.6" y="858.8"/>
      <point x="938.0" y="1042.1"/>
      <point x="711.2" y="1042.1" type="curve" smooth="yes"/>
      <point x="579.2" y="1042.1"/>
      <point x="438.3" y="980.3"/>
      <point x="326.3" y="850.3" type="curve"/>
      <point x="326.3" y="1527.5" type="line"/>
      <point x="153.4" y="1497.6" type="line"/>
      <point x="153.4" y="70.8" type="line"/>
      <point x="153.5" y="70.8"/>
      <point x="370.2" y="-22.0"/>
    </contour>
    <contour>
      <point x="621.6" y="121.8" type="curve" smooth="yes"/>
      <point x="467.1" y="121.8"/>
      <point x="326.3" y="161.0"/>
      <point x="326.3" y="161.0" type="curve"/>
      <point x="326.3" y="678.1" type="line"/>
      <point x="436.3" y="820.4"/>
      <point x="572.5" y="895.6"/>
      <point x="690.1" y="895.6" type="curve" smooth="yes"/>
      <point x="838.3" y="895.6"/>
      <point x="952.7" y="779.1"/>
      <point x="952.7" y="547.4" type="curve" smooth="yes"/>
      <point x="952.7" y="318.5"/>
      <point x="849.1" y="121.8"/>
    </contour>
  </outline>
</glyph>
<glyph name="c" format="1">
  <advance width="1078.2"/>
  <unicode hex="0063"/>
  <outline>
    <contour>
      <point x="642.9" y="-22.9" type="curve" smooth="yes"/>
      <point x="774.1" y="-22.9"/>
      <point x="912.2" y="21.5"/>
      <point x="1023.3" y="111.2" type="curve"/>
      <point x="964.2" y="243.2" type="line"/>
      <point x="882.5" y="166.9"/>
      <point x="769.5" y="124.5"/>
      <point x="660.0" y="124.5" type="curve" smooth="yes"/>
      <point x="458.7" y="124.5"/>
      <point x="276.9" y="249.8"/>
      <point x="276.9" y="507.2" type="curve" smooth="yes"/>
      <point x="276.9" y="756.6"/>
      <point x="464.3" y="896.9"/>
      <point x="664.6" y="896.9" type="curve" smooth="yes"/>
      <point x="758.2" y="896.9"/>
      <point x="854.8" y="862.7"/>
      <point x="932.2" y="791.7" type="curve"/>
      <point x="993.3" y="918.6" type="line"/>
      <point x="895.4" y="1010.2"/>
      <point x="768.9" y="1046.6"/>
      <point x="648.4" y="1046.6" type="curve" smooth="yes"/>
      <point x="369.7" y="1046.6"/>
      <point x="99.0" y="846.4"/>
      <point x="99.0" y="502.6" type="curve" smooth="yes"/>
      <point x="99.0" y="165.2"/>
      <point x="354.1" y="-22.9"/>
    </contour>
  </outline>
</glyph>
<glyph name="e" format="1">
  <advance width="1078.5"/>
  <unicode hex="0065"/>
  <outline>
    <contour>
      <point x="622.3" y="-22.0" type="curve" smooth="yes"/>
      <point x="781.5" y="-22.0"/>
      <point x="935.9" y="43.0"/>
      <point x="1037.2" y="145.6" type="curve"/>
      <point x="953.7" y="258.0" type="line"/>
      <point x="884.6" y="181.1"/>
      <point x="759.9" y="121.8"/>
      <point x="622.7" y="121.8" type="curve" smooth="yes"/>
      <point x="476.1" y="121.8"/>
      <point x="332.9" y="221.2"/>
      <point x="292.9" y="368.6" type="curve"/>
      <point x="683.9" y="417.2"/>
      <point x="969.8" y="505.6"/>
      <point x="969.8" y="748.8" type="curve" smooth="yes"/>
      <point x="969.8" y="916.3"/>
      <point x="831.6" y="1044.8"/>
      <point x="614.2" y="1044.8" type="curve" smooth="yes"/>
      <point x="286.5" y="1044.8"/>
      <point x="90.6" y="796.4"/>
      <point x="90.6" y="514.3" type="curve" smooth="yes"/>
      <point x="90.6" y="186.8"/>
      <point x="315.3" y="-22.0"/>
    </contour>
    <contour>
      <point x="279.7" y="492.8" type="curve"/>
      <point x="277.9" y="507.2"/>
      <point x="277.0" y="525.2"/>
      <point x="277.0" y="537.8" type="curve" smooth="yes"/>
      <point x="277.5" y="778.3"/>
      <point x="448.8" y="899.4"/>
      <point x="614.1" y="899.4" type="curve" smooth="yes"/>
      <point x="731.6" y="899.4"/>
      <point x="799.4" y="840.1"/>
      <point x="799.4" y="751.7" type="curve" smooth="yes"/>
      <point x="799.4" y="595.4"/>
      <point x="585.5" y="532.4"/>
    </contour>
  </outline>
</glyph>
<glyph name="f" format="1">
  <advance width="709.6"/>
  <unicode hex="0066"/>
  <outline>
    <contour>
      <point x="95.3" y="-392.0" type="line"/>
      <point x="343.4" y="-392.0"/>
      <point x="428.8" y="-280.2"/>
      <point x="428.8" y="-11.0" type="curve" smooth="yes"/>
      <point x="428.8" y="911.5" type="line"/>
      <point x="673.2" y="911.5" type="line"/>
      <point x="673.2" y="1023.0" type="line"/>
      <point x="428.8" y="1023.0" type="line"/>
      <point x="428.8" y="1181.9" type="line" smooth="yes"/>
      <point x="428.8" y="1332.8"/>
      <point x="480.8" y="1396.5"/>
      <point x="596.5" y="1396.5" type="curve" smooth="yes"/>
      <point x="631.6" y="1396.5"/>
      <point x="668.7" y="1389.1"/>
      <point x="705.2" y="1380.1" type="curve"/>
      <point x="729.2" y="1492.8" type="line"/>
      <point x="666.3" y="1514.7"/>
      <point x="604.5" y="1525.8"/>
      <point x="550.1" y="1525.8" type="curve" smooth="yes"/>
      <point x="349.9" y="1525.8"/>
      <point x="256.9" y="1416.3"/>
      <point x="256.9" y="1164.7" type="curve" smooth="yes"/>
      <point x="256.9" y="1023.0" type="line"/>
      <point x="55.5" y="1023.0" type="line"/>
      <point x="55.5" y="911.5" type="line"/>
      <point x="256.9" y="911.5" type="line"/>
      <point x="256.9" y="-32.5" type="line" smooth="yes"/>
      <point x="256.9" y="-190.1"/>
      <point x="220.5" y="-263.4"/>
      <point x="74.3" y="-263.4" type="curve"/>
    </contour>
  </outline>
</glyph>
<glyph name="g" format="1">
  <advance width="1151.0"/>
  <unicode hex="0067"/>
  <outline>
    <contour>
      <point x="523.9" y="-498.9" type="curve" smooth="yes"/>
      <point x="826.7" y="-498.9"/>
      <point x="1028.4" y="-308.3"/>
      <point x="1028.4" y="-21.4" type="curve" smooth="yes"/>
      <point x="1028.4" y="956.4" type="line"/>
      <point x="946.8" y="1008.9"/>
      <point x="801.6" y="1044.8"/>
      <point x="667.2" y="1044.8" type="curve" smooth="yes"/>
      <point x="321.7" y="1044.8"/>
      <point x="90.6" y="800.6"/>
      <point x="90.6" y="436.6" type="curve" smooth="yes"/>
      <point x="90.6" y="162.1"/>
      <point x="257.8" y="-22.0"/>
      <point x="509.1" y="-22.0" type="curve" smooth="yes"/>
      <point x="647.5" y="-22.0"/>
      <point x="780.7" y="37.4"/>
      <point x="855.1" y="128.7" type="curve"/>
      <point x="855.1" y="-41.1" type="line" smooth="yes"/>
      <point x="855.1" y="-229.0"/>
      <point x="716.0" y="-354.1"/>
      <point x="506.9" y="-354.1" type="curve" smooth="yes"/>
      <point x="417.9" y="-354.1"/>
      <point x="296.9" y="-323.4"/>
      <point x="206.0" y="-278.0" type="curve"/>
      <point x="184.2" y="-435.7" type="line"/>
      <point x="285.3" y="-474.1"/>
      <point x="420.9" y="-498.9"/>
    </contour>
    <contour>
      <point x="533.5" y="121.8" type="curve" smooth="yes"/>
      <point x="374.5" y="121.8"/>
      <point x="268.5" y="252.3"/>
      <point x="268.5" y="446.6" type="curve" smooth="yes"/>
      <point x="268.5" y="716.6"/>
      <point x="426.7" y="898.3"/>
      <point x="663.2" y="898.3" type="curve" smooth="yes"/>
      <point x="737.4" y="898.3"/>
      <point x="814.7" y="884.6"/>
      <point x="856.6" y="863.5" type="curve"/>
      <point x="856.6" y="449.6" type="line" smooth="yes"/>
      <point x="856.6" y="262.5"/>
      <point x="727.2" y="121.8"/>
    </contour>
  </outline>
</glyph>
<glyph name="h" format="1">
  <advance width="1231.4"/>
  <unicode hex="0068"/>
  <outline>
    <contour>
      <point x="1139.9" y="-20.9" type="curve"/>
      <point x="1156.8" y="122.5" type="line"/>
      <point x="1032.9" y="99.1"/>
      <point x="1038.3" y="169.8"/>
      <point x="1039.2" y="319.9" type="curve" smooth="yes"/>
      <point x="1041.0" y="565.7" type="line" smooth="yes"/>
      <point x="1043.7" y="896.6"/>
      <point x="922.3" y="1044.8"/>
      <point x="689.3" y="1044.8" type="curve" smooth="yes"/>
      <point x="542.4" y="1044.8"/>
      <point x="396.1" y="979.7"/>
      <point x="326.3" y="877.9" type="curve"/>
      <point x="326.3" y="1528.0" type="line"/>
      <point x="153.8" y="1506.8" type="line"/>
      <point x="153.8" y="0.0" type="line"/>
      <point x="326.3" y="0.0" type="line"/>
      <point x="326.3" y="535.6" type="line" smooth="yes"/>
      <point x="326.3" y="784.1"/>
      <point x="498.3" y="896.7"/>
      <point x="653.0" y="896.7" type="curve" smooth="yes"/>
      <point x="805.8" y="896.7"/>
      <point x="868.3" y="793.8"/>
      <point x="868.3" y="560.7" type="curve"/>
      <point x="866.5" y="278.1" type="line" smooth="yes"/>
      <point x="864.7" y="45.8"/>
      <point x="917.2" y="-54.9"/>
    </contour>
  </outline>
</glyph>
<glyph name="k" format="1">
  <advance width="1118.0"/>
  <unicode hex="006B"/>
  <outline>
    <contour>
      <point x="1128.4" y="-21.8" type="curve"/>
      <point x="1143.7" y="121.9" type="line"/>
      <point x="1023.4" y="119.9"/>
      <point x="967.4" y="165.7"/>
      <point x="887.8" y="280.1" type="curve" smooth="yes"/>
      <point x="695.2" y="556.4" type="line"/>
      <point x="992.0" y="972.3" type="line"/>
      <point x="834.7" y="1022.1" type="line"/>
      <point x="325.0" y="301.7" type="line"/>
      <point x="325.0" y="1526.7" type="line"/>
      <point x="153.2" y="1497.7" type="line"/>
      <point x="153.2" y="64.0" type="line" smooth="yes"/>
      <point x="153.2" y="-26.3"/>
      <point x="249.7" y="-42.1"/>
      <point x="306.4" y="27.6" type="curve"/>
      <point x="598.4" y="429.3" type="line"/>
      <point x="766.4" y="184.0" type="line" smooth="yes"/>
      <point x="858.5" y="50.1"/>
      <point x="949.3" y="-21.8"/>
    </contour>
  </outline>
</glyph>
<glyph name="l" format="1">
  <advance width="691.8"/>
  <unicode hex="006C"/>
  <outline>
    <contour>
      <point x="698.5" y="158.6" type="line"/>
      <point x="636.2" y="132.8"/>
      <point x="570.1" y="116.3"/>
      <point x="514.3" y="116.3" type="curve" smooth="yes"/>
      <point x="413.8" y="116.3"/>
      <point x="339.6" y="167.2"/>
      <point x="339.6" y="298.1" type="curve" smooth="yes"/>
      <point x="339.6" y="1528.9" type="line"/>
      <point x="167.6" y="1499.0" type="line"/>
      <point x="167.6" y="300.1" type="line" smooth="yes"/>
      <point x="167.6" y="83.0"/>
      <point x="307.1" y="-17.3"/>
      <point x="486.4" y="-17.3" type="curve" smooth="yes"/>
      <point x="560.7" y="-17.3"/>
      <point x="642.8" y="0.4"/>
      <point x="723.5" y="34.3" type="curve"/>
    </contour>
  </outline>
</glyph>
<glyph name="m" format="1">
  <advance width="1945.9"/>
  <unicode hex="006D"/>
  <outline>
    <contour>
      <point x="1892.3" y="-17.1" type="curve"/>
      <point x="1909.1" y="126.3" type="line"/>
      <point x="1776.2" y="121.8"/>
      <point x="1756.4" y="191.6"/>
      <point x="1757.3" y="341.7" type="curve" smooth="yes"/>
      <point x="1757.3" y="565.7" type="line" smooth="yes"/>
      <point x="1760.0" y="896.6"/>
      <point x="1624.3" y="1044.8"/>
      <point x="1391.3" y="1044.8" type="curve" smooth="yes"/>
      <point x="1252.4" y="1044.8"/>
      <point x="1079.4" y="978.9"/>
      <point x="1020.9" y="815.3" type="curve"/>
      <point x="971.6" y="972.5"/>
      <point x="858.0" y="1044.8"/>
      <point x="695.9" y="1044.8" type="curve" smooth="yes"/>
      <point x="538.5" y="1044.8"/>
      <point x="405.9" y="977.8"/>
      <point x="326.1" y="853.2" type="curve"/>
      <point x="315.8" y="917.5"/>
      <point x="261.7" y="988.5"/>
      <point x="218.4" y="1022.7" type="curve"/>
      <point x="66.6" y="940.0" type="line"/>
      <point x="121.3" y="890.1"/>
      <point x="180.2" y="804.6"/>
      <point x="180.2" y="690.1" type="curve" smooth="yes"/>
      <point x="180.2" y="0.0" type="line"/>
      <point x="352.7" y="0.0" type="line"/>
      <point x="352.7" y="565.5" type="line"/>
      <point x="366.2" y="796.2"/>
      <point x="524.9" y="896.7"/>
      <point x="669.1" y="896.7" type="curve" smooth="yes"/>
      <point x="819.7" y="896.7"/>
      <point x="881.1" y="795.8"/>
      <point x="881.1" y="560.7" type="curve" smooth="yes"/>
      <point x="881.1" y="0.0" type="line"/>
      <point x="1053.8" y="0.0" type="line"/>
      <point x="1053.8" y="536.0" type="line"/>
      <point x="1053.8" y="787.5"/>
      <point x="1225.2" y="896.7"/>
      <point x="1373.5" y="896.7" type="curve" smooth="yes"/>
      <point x="1526.1" y="896.7"/>
      <point x="1584.6" y="793.8"/>
      <point x="1584.6" y="560.7" type="curve" smooth="yes"/>
      <point x="1584.6" y="299.9" type="line" smooth="yes"/>
      <point x="1582.8" y="67.6"/>
      <point x="1669.5" y="-33.1"/>
    </contour>
  </outline>
</glyph>
<glyph name="n" format="1">
  <advance width="1273.0"/>
  <unicode hex="006E"/>
  <outline>
    <contour>
      <point x="1236.2" y="117.0" type="line"/>
      <point x="1231.1" y="116.8"/>
      <point x="1226.3" y="116.7"/>
      <point x="1221.5" y="116.7" type="curve" smooth="yes"/>
      <point x="1118.3" y="116.7"/>
      <point x="1079.5" y="159.5"/>
      <point x="1079.5" y="322.5" type="curve" smooth="yes"/>
      <point x="1079.5" y="582.8" type="line" smooth="yes"/>
      <point x="1079.5" y="913.7"/>
      <point x="935.5" y="1044.8"/>
      <point x="702.5" y="1044.8" type="curve" smooth="yes"/>
      <point x="543.1" y="1044.8"/>
      <point x="406.6" y="968.9"/>
      <point x="345.0" y="854.0" type="curve"/>
      <point x="334.3" y="917.2"/>
      <point x="279.7" y="989.4"/>
      <point x="235.5" y="1022.7" type="curve"/>
      <point x="85.5" y="940.0" type="line"/>
      <point x="134.8" y="896.4"/>
      <point x="199.1" y="804.6"/>
      <point x="199.1" y="690.1" type="curve" smooth="yes"/>
      <point x="199.1" y="0.0" type="line"/>
      <point x="371.6" y="0.0" type="line"/>
      <point x="371.6" y="565.5" type="line"/>
      <point x="385.1" y="796.2"/>
      <point x="535.0" y="896.7"/>
      <point x="677.2" y="896.7" type="curve" smooth="yes"/>
      <point x="827.8" y="896.7"/>
      <point x="907.7" y="806.4"/>
      <point x="907.7" y="573.3" type="curve" smooth="yes"/>
      <point x="907.7" y="326.4" type="line" smooth="yes"/>
      <point x="907.7" y="106.3"/>
      <point x="962.5" y="-19.7"/>
      <point x="1180.0" y="-19.7" type="curve" smooth="yes"/>
      <point x="1192.4" y="-19.7"/>
      <point x="1205.2" y="-19.3"/>
      <point x="1219.4" y="-17.6" type="curve"/>
    </contour>
  </outline>
</glyph>
<glyph name="o" format="1">
  <advance width="1250.3"/>
  <unicode hex="006F"/>
  <outline>
    <contour>
      <point x="629.8" y="121.8" type="curve" smooth="yes"/>
      <point x="418.4" y="121.8"/>
      <point x="277.4" y="276.0"/>
      <point x="277.4" y="507.7" type="curve" smooth="yes"/>
      <point x="277.4" y="742.1"/>
      <point x="418.3" y="898.3"/>
      <point x="628.7" y="898.3" type="curve" smooth="yes"/>
      <point x="835.6" y="898.3"/>
      <point x="972.9" y="743.0"/>
      <point x="972.9" y="509.5" type="curve" smooth="yes"/>
      <point x="972.9" y="276.9"/>
      <point x="835.7" y="121.8"/>
    </contour>
    <contour>
      <point x="629.6" y="-22.0" type="curve" smooth="yes"/>
      <point x="942.4" y="-22.0"/>
      <point x="1150.7" y="191.4"/>
      <point x="1150.7" y="511.4" type="curve" smooth="yes"/>
      <point x="1150.7" y="831.6"/>
      <point x="942.2" y="1044.8"/>
      <point x="628.6" y="1044.8" type="curve" smooth="yes"/>
      <point x="311.5" y="1044.8"/>
      <point x="99.6" y="830.5"/>
      <point x="99.6" y="509.5" type="curve" smooth="yes"/>
      <point x="99.6" y="190.4"/>
      <point x="311.6" y="-22.0"/>
    </contour>
  </outline>
</glyph>
<glyph name="p" format="1">
  <advance width="1260.9"/>
  <unicode hex="0070"/>
  <outline>
    <contour>
      <point x="173.0" y="-460.9" type="line"/>
      <point x="345.5" y="-444.7" type="line"/>
      <point x="345.7" y="92.2" type="line"/>
      <point x="421.8" y="20.4"/>
      <point x="560.2" y="-22.0"/>
      <point x="697.1" y="-22.0" type="curve" smooth="yes"/>
      <point x="991.6" y="-22.0"/>
      <point x="1168.5" y="183.6"/>
      <point x="1168.5" y="525.2" type="curve" smooth="yes"/>
      <point x="1168.5" y="850.8"/>
      <point x="994.9" y="1044.8"/>
      <point x="708.6" y="1044.8" type="curve" smooth="yes"/>
      <point x="549.4" y="1044.8"/>
      <point x="398.2" y="969.0"/>
      <point x="325.7" y="838.4" type="curve"/>
      <point x="317.3" y="916.5"/>
      <point x="263.5" y="984.3"/>
      <point x="212.1" y="1022.8" type="curve"/>
      <point x="63.0" y="943.8" type="line"/>
      <point x="112.8" y="889.2"/>
      <point x="173.0" y="813.6"/>
      <point x="173.0" y="707.2" type="curve" smooth="yes"/>
    </contour>
    <contour>
      <point x="672.1" y="121.8" type="curve" smooth="yes"/>
      <point x="540.1" y="121.8"/>
      <point x="411.0" y="176.6"/>
      <point x="344.6" y="269.4" type="curve"/>
      <point x="344.6" y="432.3" type="line" smooth="yes"/>
      <point x="344.6" y="723.0"/>
      <point x="484.1" y="898.3"/>
      <point x="697.9" y="898.3" type="curve" smooth="yes"/>
      <point x="882.0" y="898.3"/>
      <point x="990.6" y="757.1"/>
      <point x="990.6" y="519.2" type="curve" smooth="yes"/>
      <point x="990.6" y="270.3"/>
      <point x="871.4" y="121.8"/>
    </contour>
  </outline>
</glyph>
<glyph name="q" format="1">
  <advance width="1257.5"/>
  <unicode hex="0071"/>
  <outline>
    <contour>
      <point x="1072.4" y="-530.0" type="curve" smooth="yes"/>
      <point x="1409.3" y="-352.6" type="line"/>
      <point x="1335.2" y="-223.9" type="line"/>
      <point x="1081.8" y="-357.9" type="line"/>
      <point x="1081.8" y="792.7" type="line" smooth="yes"/>
      <point x="1081.8" y="885.4"/>
      <point x="1093.5" y="988.0"/>
      <point x="1098.0" y="1018.6" type="curve"/>
      <point x="928.0" y="1020.4" type="line"/>
      <point x="913.2" y="889.5" type="line"/>
      <point x="861.9" y="976.8"/>
      <point x="778.3" y="1044.8"/>
      <point x="585.6" y="1044.8" type="curve" smooth="yes"/>
      <point x="276.7" y="1044.8"/>
      <point x="92.6" y="813.0"/>
      <point x="92.6" y="503.9" type="curve" smooth="yes"/>
      <point x="92.6" y="199.8"/>
      <point x="270.8" y="-22.0"/>
      <point x="572.3" y="-22.0" type="curve" smooth="yes"/>
      <point x="713.0" y="-22.0"/>
      <point x="831.3" y="31.6"/>
      <point x="909.3" y="126.7" type="curve"/>
      <point x="909.3" y="-415.0" type="line" smooth="yes"/>
      <point x="909.3" y="-528.1"/>
      <point x="1008.0" y="-564.0"/>
    </contour>
    <contour>
      <point x="590.2" y="121.9" type="curve" smooth="yes"/>
      <point x="372.8" y="121.9"/>
      <point x="270.5" y="285.5"/>
      <point x="270.5" y="505.4" type="curve" smooth="yes"/>
      <point x="270.5" y="730.9"/>
      <point x="370.9" y="898.3"/>
      <point x="594.5" y="898.3" type="curve" smooth="yes"/>
      <point x="799.4" y="898.3"/>
      <point x="905.0" y="760.7"/>
      <point x="909.3" y="559.9" type="curve" smooth="yes"/>
      <point x="909.3" y="324.9" type="line"/>
      <point x="863.4" y="218.5"/>
      <point x="728.4" y="121.9"/>
    </contour>
  </outline>
</glyph>
<glyph name="r" format="1">
  <advance width="802.1"/>
  <unicode hex="0072"/>
  <outline>
    <contour>
      <point x="186.0" y="0.0" type="line"/>
      <point x="358.5" y="0.0" type="line"/>
      <point x="358.5" y="563.7" type="line" smooth="yes"/>
      <point x="358.5" y="783.4"/>
      <point x="475.6" y="895.3"/>
      <point x="627.0" y="895.3" type="curve" smooth="yes"/>
      <point x="707.0" y="895.3"/>
      <point x="749.4" y="878.6"/>
      <point x="769.1" y="872.1" type="curve"/>
      <point x="783.5" y="1024.5" type="line"/>
      <point x="747.6" y="1034.4"/>
      <point x="712.6" y="1044.4"/>
      <point x="629.9" y="1044.4" type="curve" smooth="yes"/>
      <point x="504.8" y="1044.4"/>
      <point x="385.6" y="959.1"/>
      <point x="333.6" y="852.2" type="curve"/>
      <point x="323.0" y="917.4"/>
      <point x="270.4" y="981.4"/>
      <point x="223.3" y="1023.0" type="curve"/>
      <point x="72.4" y="940.2" type="line"/>
      <point x="121.3" y="897.5"/>
      <point x="186.0" y="814.5"/>
      <point x="186.0" y="690.2" type="curve" smooth="yes"/>
    </contour>
  </outline>
</glyph>
<glyph name="t" format="1">
  <advance width="828.1"/>
  <unicode hex="0074"/>
  <outline>
    <contour>
      <point x="561.7" y="-8.8" type="curve" smooth="yes"/>
      <point x="620.7" y="-8.8"/>
      <point x="728.9" y="11.6"/>
      <point x="794.3" y="33.8" type="curve"/>
      <point x="774.7" y="163.5" type="line"/>
      <point x="727.8" y="145.8"/>
      <point x="630.2" y="125.7"/>
      <point x="584.2" y="125.7" type="curve" smooth="yes"/>
      <point x="457.6" y="125.7"/>
      <point x="400.7" y="179.3"/>
      <point x="400.7" y="303.0" type="curve" smooth="yes"/>
      <point x="400.7" y="909.1" type="line"/>
      <point x="731.7" y="909.1" type="line"/>
      <point x="731.7" y="1023.0" type="line"/>
      <point x="400.7" y="1023.0" type="line"/>
      <point x="400.7" y="1344.3" type="line"/>
      <point x="233.0" y="1299.1" type="line"/>
      <point x="233.0" y="1023.0" type="line"/>
      <point x="27.1" y="1023.0" type="line"/>
      <point x="27.1" y="909.1" type="line"/>
      <point x="228.5" y="909.1" type="line"/>
      <point x="228.5" y="299.6" type="line" smooth="yes"/>
      <point x="228.5" y="83.4"/>
      <point x="333.1" y="-8.8"/>
    </contour>
  </outline>
</glyph>
<glyph name="v" format="1">
  <advance width="1066.7"/>
  <unicode hex="0076"/>
  <outline>
    <contour>
      <point x="446.7" y="0.0" type="line"/>
      <point x="618.1" y="0.0" type="line"/>
      <point x="1049.7" y="1023.0" type="line"/>
      <point x="865.5" y="1023.0" type="line"/>
      <point x="595.2" y="350.8" type="line"/>
      <point x="583.2" y="323.7"/>
      <point x="570.3" y="280.0"/>
      <point x="539.3" y="179.2" type="curve"/>
      <point x="523.4" y="233.0"/>
      <point x="500.7" y="304.8"/>
      <point x="481.5" y="350.8" type="curve" smooth="yes"/>
      <point x="206.2" y="1023.0" type="line"/>
      <point x="17.0" y="1023.0" type="line"/>
    </contour>
  </outline>
</glyph>
<glyph name="w" format="1">
  <advance width="1686.0"/>
  <unicode hex="0077"/>
  <outline>
    <contour>
      <point x="393.1" y="0.0" type="line"/>
      <point x="559.2" y="0.0" type="line"/>
      <point x="851.4" y="806.1" type="line"/>
      <point x="1127.5" y="0.0" type="line"/>
      <point x="1291.8" y="0.0" type="line"/>
      <point x="1661.0" y="1023.0" type="line"/>
      <point x="1484.1" y="1023.0" type="line"/>
      <point x="1250.0" y="306.7" type="line"/>
      <point x="1238.0" y="275.1"/>
      <point x="1228.6" y="239.5"/>
      <point x="1214.0" y="202.6" type="curve"/>
      <point x="1203.4" y="234.8"/>
      <point x="1192.8" y="276.0"/>
      <point x="1182.2" y="305.8" type="curve" smooth="yes"/>
      <point x="943.6" y="1012.9" type="line"/>
      <point x="938.669209879" y="1026.21313333"/>
      <point x="774.049813651" y="1027.40163107"/>
      <point x="768.9" y="1012.4" type="curve"/>
      <point x="516.5" y="296.8" type="line"/>
      <point x="504.5" y="269.7"/>
      <point x="495.1" y="235.0"/>
      <point x="483.1" y="199.9" type="curve"/>
      <point x="472.6" y="233.0"/>
      <point x="462.0" y="273.3"/>
      <point x="451.4" y="304.0" type="curve" smooth="yes"/>
      <point x="208.8" y="1023.0" type="line"/>
      <point x="25.0" y="1023.0" type="line"/>
    </contour>
  </outline>
</glyph>
<glyph name="x" format="1">
  <advance width="1092.9"/>
  <unicode hex="0078"/>
  <outline>
    <contour>
      <point x="45.2" y="0.0" type="line"/>
      <point x="242.8" y="0.0" type="line"/>
      <point x="543.8" y="401.7" type="line"/>
      <point x="836.5" y="0.0" type="line"/>
      <point x="1047.7" y="0.0" type="line"/>
      <point x="656.9" y="516.6" type="line"/>
      <point x="1034.3" y="1023.0" type="line"/>
      <point x="845.3" y="1023.0" type="line"/>
      <point x="562.2" y="631.5" type="line"/>
      <point x="278.7" y="1023.0" type="line"/>
      <point x="66.8" y="1023.0" type="line"/>
      <point x="446.0" y="514.5" type="line"/>
    </contour>
  </outline>
</glyph>
<glyph name="y" format="1">
  <advance width="1196.1"/>
  <unicode hex="0079"/>
  <outline>
    <contour>
      <point x="530.4" y="-498.8" type="curve" smooth="yes"/>
      <point x="828.8" y="-498.8"/>
      <point x="1034.5" y="-315.5"/>
      <point x="1034.6" y="-21.3" type="curve" smooth="yes"/>
      <point x="1034.6" y="1023.0" type="line"/>
      <point x="862.2" y="1023.0" type="line"/>
      <point x="862.2" y="431.6" type="line" smooth="yes"/>
      <point x="862.2" y="234.9"/>
      <point x="730.2" y="121.4"/>
      <point x="564.2" y="121.4" type="curve" smooth="yes"/>
      <point x="442.7" y="121.4"/>
      <point x="326.4" y="176.8"/>
      <point x="331.2" y="366.6" type="curve" smooth="yes"/>
      <point x="337.0" y="593.2" type="line" smooth="yes"/>
      <point x="345.7" y="935.3"/>
      <point x="280.3" y="1023.0"/>
      <point x="280.3" y="1023.0" type="curve"/>
      <point x="107.0" y="996.9" type="line"/>
      <point x="107.0" y="996.9"/>
      <point x="172.6" y="895.3"/>
      <point x="163.8" y="580.2" type="curve" smooth="yes"/>
      <point x="157.9" y="364.0" type="line" smooth="yes"/>
      <point x="150.1" y="85.0"/>
      <point x="337.7" y="-22.0"/>
      <point x="536.6" y="-22.0" type="curve" smooth="yes"/>
      <point x="676.9" y="-22.0"/>
      <point x="786.5" y="27.1"/>
      <point x="862.8" y="127.1" type="curve"/>
      <point x="862.5" y="-44.0" type="line" smooth="yes"/>
      <point x="862.5" y="-237.1"/>
      <point x="717.4" y="-354.8"/>
      <point x="515.7" y="-354.8" type="curve" smooth="yes"/>
      <point x="426.1" y="-354.8"/>
      <point x="303.9" y="-323.7"/>
      <point x="212.4" y="-277.9" type="curve"/>
      <point x="190.7" y="-435.6" type="line"/>
      <point x="293.2" y="-474.3"/>
      <point x="426.9" y="-498.8"/>
    </contour>
  </outline>
</glyph>
<glyph name="z" format="1">
  <advance width="985.4"/>
  <unicode hex="007A"/>
  <outline>
    <contour>
      <point x="84.4" y="0.0" type="line"/>
      <point x="923.3" y="0.0" type="line"/>
      <point x="923.3" y="139.1" type="line"/>
      <point x="317.0" y="139.1" type="line"/>
      <point x="905.8" y="929.4" type="line"/>
      <point x="905.8" y="1023.0" type="line"/>
      <point x="109.3" y="1023.0" type="line"/>
      <point x="109.3" y="884.4" type="line"/>
      <point x="675.6" y="884.4" type="line"/>
      <point x="84.4" y="95.6" type="line"/>
    </contour>
  </outline>
</glyph>
<glyph name="bar" format="1">
  <advance width="538.1"/>
  <unicode hex="007C"/>
  <outline>
    <contour>
      <point x="186.0" y="-482.8" type="line"/>
      <point x="345.8" y="-482.8" type="line"/>
      <point x="345.8" y="1543.1" type="line"/>
      <point x="186.0" y="1543.1" type="line"/>
    </contour>
  </outline>
</glyph>
<glyph name="exclamdown" format="1">
  <advance width="793.0"/>
  <unicode hex="00A1"/>
  <outline>
    <contour>
      <point x="274.4" y="-73.0" type="line"/>
      <point x="462.2" y="-73.0" type="line"/>
      <point x="417.2" y="1028.2" type="line"/>
      <point x="320.3" y="1028.2" type="line"/>
    </contour>
    <contour>
      <point x="363.5" y="1191.0" type="curve" smooth="yes"/>
      <point x="429.2" y="1191.0"/>
      <point x="490.4" y="1237.8"/>
      <point x="490.4" y="1291.8" type="curve" smooth="yes"/>
      <point x="490.4" y="1354.8"/>
      <point x="439.1" y="1415.8"/>
      <point x="387.8" y="1415.8" type="curve" smooth="yes"/>
      <point x="322.1" y="1415.8"/>
      <point x="260.9" y="1369.0"/>
      <point x="260.9" y="1315.0" type="curve" smooth="yes"/>
      <point x="260.9" y="1252.0"/>
      <point x="312.2" y="1191.0"/>
    </contour>
  </outline>
</glyph>
<glyph name="brokenbar" format="1">
  <advance width="538.0"/>
  <unicode hex="00A6"/>
  <outline>
    <contour>
      <point x="180.8" y="-528.4" type="line"/>
      <point x="340.6" y="-528.4" type="line"/>
      <point x="340.6" y="371.0" type="line"/>
      <point x="180.8" y="371.0" type="line"/>
    </contour>
    <contour>
      <point x="180.8" y="660.0" type="line"/>
      <point x="340.6" y="660.0" type="line"/>
      <point x="340.6" y="1543.1" type="line"/>
      <point x="180.8" y="1543.1" type="line"/>
    </contour>
  </outline>
</glyph>
<glyph name="section" format="1">
  <advance width="1180.5"/>
  <unicode hex="00A7"/>
  <outline>
    <contour>
      <point x="501.2" y="-51.6" type="curve" smooth="yes"/>
      <point x="616.2" y="-51.6"/>
      <point x="718.9" y="-21.1"/>
      <point x="789.2" y="27.7" type="curve" smooth="yes"/>
      <point x="856.3" y="74.5"/>
      <point x="914.4" y="145.7"/>
      <point x="914.4" y="253.5" type="curve" smooth="yes"/>
      <point x="914.4" y="381.7"/>
      <point x="835.0" y="441.8"/>
      <point x="748.5" y="485.6" type="curve"/>
      <point x="833.0" y="537.4"/>
      <point x="937.7" y="613.8"/>
      <point x="937.7" y="747.0" type="curve" smooth="yes"/>
      <point x="937.7" y="782.6"/>
      <point x="928.6" y="815.2"/>
      <point x="912.3" y="843.7" type="curve" smooth="yes"/>
      <point x="837.0" y="970.9"/>
      <point x="658.0" y="1015.7"/>
      <point x="525.7" y="1087.9" type="curve" smooth="yes"/>
      <point x="466.7" y="1120.5"/>
      <point x="410.7" y="1157.1"/>
      <point x="410.7" y="1239.5" type="curve" smooth="yes"/>
      <point x="410.7" y="1348.4"/>
      <point x="518.6" y="1376.8"/>
      <point x="629.4" y="1376.8" type="curve" smooth="yes"/>
      <point x="714.9" y="1376.8"/>
      <point x="798.3" y="1352.4"/>
      <point x="859.4" y="1323.9" type="curve"/>
      <point x="857.3" y="1474.5" type="line"/>
      <point x="781.0" y="1497.9"/>
      <point x="718.9" y="1516.2"/>
      <point x="624.4" y="1516.2" type="curve" smooth="yes"/>
      <point x="420.8" y="1516.2"/>
      <point x="235.7" y="1437.9"/>
      <point x="235.7" y="1235.4" type="curve" smooth="yes"/>
      <point x="235.7" y="1106.1"/>
      <point x="304.9" y="1042.0"/>
      <point x="391.4" y="989.2" type="curve"/>
      <point x="301.9" y="944.4"/>
      <point x="199.1" y="871.1"/>
      <point x="199.1" y="738.9" type="curve" smooth="yes"/>
      <point x="199.1" y="706.3"/>
      <point x="205.2" y="675.8"/>
      <point x="216.4" y="648.3" type="curve" smooth="yes"/>
      <point x="255.1" y="553.7"/>
      <point x="343.6" y="499.8"/>
      <point x="439.2" y="459.1" type="curve" smooth="yes"/>
      <point x="524.7" y="422.5" type="line" smooth="yes"/>
      <point x="558.3" y="408.3"/>
      <point x="588.8" y="395.0"/>
      <point x="615.3" y="382.8" type="curve" smooth="yes"/>
      <point x="674.2" y="355.3"/>
      <point x="738.3" y="324.8"/>
      <point x="738.3" y="244.4" type="curve" smooth="yes"/>
      <point x="738.3" y="222.0"/>
      <point x="733.3" y="201.7"/>
      <point x="722.1" y="182.4" type="curve" smooth="yes"/>
      <point x="685.5" y="118.3"/>
      <point x="599.0" y="87.8"/>
      <point x="496.2" y="87.8" type="curve" smooth="yes"/>
      <point x="390.4" y="87.8"/>
      <point x="308.9" y="115.2"/>
      <point x="224.5" y="152.8" type="curve"/>
      <point x="226.6" y="1.3" type="line"/>
      <point x="303.9" y="-30.2"/>
      <point x="397.4" y="-51.6"/>
    </contour>
    <contour>
      <point x="612.1" y="553.7" type="curve"/>
      <point x="577.5" y="567.9"/>
      <point x="546.0" y="581.2"/>
      <point x="517.5" y="594.4" type="curve" smooth="yes"/>
      <point x="452.4" y="623.9"/>
      <point x="379.1" y="661.6"/>
      <point x="379.1" y="751.1" type="curve" smooth="yes"/>
      <point x="379.1" y="842.7"/>
      <point x="453.4" y="892.5"/>
      <point x="514.5" y="925.1" type="curve"/>
      <point x="596.0" y="880.3"/>
      <point x="756.6" y="857.9"/>
      <point x="756.6" y="732.8" type="curve" smooth="yes"/>
      <point x="756.6" y="712.4"/>
      <point x="752.6" y="694.2"/>
      <point x="743.5" y="676.8" type="curve" smooth="yes"/>
      <point x="715.9" y="622.9"/>
      <point x="662.0" y="585.3"/>
    </contour>
  </outline>
</glyph>
<glyph name="copyright" format="1">
  <advance width="1864.4"/>
  <unicode hex="00A9"/>
  <outline>
    <contour>
      <point x="958.7" y="243.1" type="curve" smooth="yes"/>
      <point x="1080.8" y="243.1"/>
      <point x="1185.6" y="273.6"/>
      <point x="1273.1" y="334.7" type="curve"/>
      <point x="1233.4" y="457.8" type="line"/>
      <point x="1172.3" y="407.9"/>
      <point x="1094.1" y="376.4"/>
      <point x="991.3" y="376.4" type="curve" smooth="yes"/>
      <point x="931.2" y="376.4"/>
      <point x="878.3" y="386.6"/>
      <point x="832.5" y="404.9" type="curve" smooth="yes"/>
      <point x="709.4" y="455.7"/>
      <point x="626.0" y="565.7"/>
      <point x="626.0" y="735.6" type="curve" smooth="yes"/>
      <point x="626.0" y="784.4"/>
      <point x="634.2" y="830.2"/>
      <point x="649.5" y="872.9" type="curve" smooth="yes"/>
      <point x="694.3" y="996.0"/>
      <point x="798.0" y="1088.7"/>
      <point x="962.8" y="1088.7" type="curve" smooth="yes"/>
      <point x="1071.7" y="1088.7"/>
      <point x="1163.2" y="1056.1"/>
      <point x="1237.5" y="992.0" type="curve"/>
      <point x="1269.0" y="1114.1" type="line"/>
      <point x="1186.6" y="1184.3"/>
      <point x="1086.9" y="1218.8"/>
      <point x="969.9" y="1218.8" type="curve" smooth="yes"/>
      <point x="894.6" y="1218.8"/>
      <point x="826.5" y="1206.6"/>
      <point x="765.4" y="1182.2" type="curve" smooth="yes"/>
      <point x="595.5" y="1115.1"/>
      <point x="470.3" y="965.5"/>
      <point x="470.3" y="731.5" type="curve" smooth="yes"/>
      <point x="470.3" y="663.4"/>
      <point x="482.6" y="600.2"/>
      <point x="507.0" y="541.2" type="curve" smooth="yes"/>
      <point x="575.1" y="374.3"/>
      <point x="727.7" y="243.1"/>
    </contour>
    <contour>
      <point x="932.2" y="-42.8" type="curve" smooth="yes"/>
      <point x="1185.5" y="-42.8"/>
      <point x="1373.8" y="57.9"/>
      <point x="1508.1" y="185.1" type="curve" smooth="yes"/>
      <point x="1638.3" y="308.2"/>
      <point x="1749.2" y="483.2"/>
      <point x="1749.2" y="727.4" type="curve" smooth="yes"/>
      <point x="1749.2" y="797.6"/>
      <point x="1739.0" y="864.8"/>
      <point x="1719.7" y="929.9" type="curve" smooth="yes"/>
      <point x="1678.0" y="1067.3"/>
      <point x="1602.7" y="1180.2"/>
      <point x="1508.1" y="1269.7" type="curve" smooth="yes"/>
      <point x="1372.8" y="1396.9"/>
      <point x="1182.6" y="1498.7"/>
      <point x="926.2" y="1498.7" type="curve" smooth="yes"/>
      <point x="672.9" y="1498.7"/>
      <point x="484.7" y="1398.9"/>
      <point x="349.3" y="1271.7" type="curve" smooth="yes"/>
      <point x="219.1" y="1148.6"/>
      <point x="107.1" y="973.6"/>
      <point x="107.1" y="728.4" type="curve" smooth="yes"/>
      <point x="107.1" y="658.2"/>
      <point x="117.3" y="590.1"/>
      <point x="136.6" y="525.0" type="curve" smooth="yes"/>
      <point x="178.3" y="387.7"/>
      <point x="252.6" y="274.6"/>
      <point x="348.2" y="185.1" type="curve" smooth="yes"/>
      <point x="483.6" y="57.9"/>
      <point x="675.8" y="-42.8"/>
    </contour>
    <contour>
      <point x="931.3" y="76.3" type="curve" smooth="yes"/>
      <point x="719.7" y="76.3"/>
      <point x="549.8" y="156.6"/>
      <point x="435.8" y="264.5" type="curve" smooth="yes"/>
      <point x="324.9" y="369.2"/>
      <point x="236.3" y="525.9"/>
      <point x="236.3" y="729.5" type="curve" smooth="yes"/>
      <point x="236.3" y="931.9"/>
      <point x="324.9" y="1088.6"/>
      <point x="435.8" y="1192.4" type="curve" smooth="yes"/>
      <point x="548.8" y="1298.2"/>
      <point x="717.5" y="1379.6"/>
      <point x="927.2" y="1379.6" type="curve" smooth="yes"/>
      <point x="1137.8" y="1379.6"/>
      <point x="1307.7" y="1297.3"/>
      <point x="1420.7" y="1190.4" type="curve" smooth="yes"/>
      <point x="1531.5" y="1085.7"/>
      <point x="1620.0" y="929.9"/>
      <point x="1620.0" y="726.5" type="curve" smooth="yes"/>
      <point x="1620.0" y="524.0"/>
      <point x="1531.4" y="368.3"/>
      <point x="1421.6" y="264.5" type="curve" smooth="yes"/>
      <point x="1308.7" y="157.6"/>
      <point x="1141.9" y="76.3"/>
    </contour>
  </outline>
</glyph>
<glyph name="ordfeminine" format="1">
  <advance width="773.9"/>
  <unicode hex="00AA"/>
  <outline>
    <contour>
      <point x="330.1" y="754.8" type="curve" smooth="yes"/>
      <point x="431.8" y="754.8"/>
      <point x="508.2" y="792.4"/>
      <point x="553.9" y="848.3" type="curve"/>
      <point x="560.0" y="773.1" type="line"/>
      <point x="693.3" y="773.1" type="line"/>
      <point x="688.2" y="834.2"/>
      <point x="686.2" y="858.5"/>
      <point x="686.2" y="903.3" type="curve" smooth="yes"/>
      <point x="688.2" y="1229.9" type="line"/>
      <point x="688.2" y="1397.8"/>
      <point x="575.3" y="1476.1"/>
      <point x="408.4" y="1476.1" type="curve" smooth="yes"/>
      <point x="274.1" y="1476.1"/>
      <point x="172.4" y="1434.4"/>
      <point x="120.5" y="1346.9" type="curve"/>
      <point x="188.7" y="1270.6" type="line"/>
      <point x="233.5" y="1336.8"/>
      <point x="301.6" y="1366.3"/>
      <point x="402.3" y="1366.3" type="curve" smooth="yes"/>
      <point x="514.2" y="1366.3"/>
      <point x="552.9" y="1325.6"/>
      <point x="552.9" y="1213.7" type="curve" smooth="yes"/>
      <point x="552.9" y="1205.5" type="line"/>
      <point x="477.6" y="1195.3"/>
      <point x="397.3" y="1196.4"/>
      <point x="322.0" y="1186.2" type="curve"/>
      <point x="199.9" y="1167.8"/>
      <point x="74.7" y="1104.7"/>
      <point x="74.7" y="965.4" type="curve" smooth="yes"/>
      <point x="74.7" y="933.8"/>
      <point x="80.8" y="905.3"/>
      <point x="94.0" y="878.9" type="curve" smooth="yes"/>
      <point x="131.7" y="801.6"/>
      <point x="216.1" y="754.8"/>
    </contour>
    <contour>
      <point x="351.4" y="859.6" type="curve" smooth="yes"/>
      <point x="272.1" y="859.6"/>
      <point x="213.1" y="888.1"/>
      <point x="213.1" y="967.4" type="curve" smooth="yes"/>
      <point x="213.1" y="1107.9"/>
      <point x="438.9" y="1080.3"/>
      <point x="552.9" y="1102.7" type="curve"/>
      <point x="552.9" y="1077.3" type="line"/>
      <point x="546.7" y="952.2"/>
      <point x="483.7" y="859.6"/>
    </contour>
  </outline>
</glyph>
<glyph name="guillemotleft" format="1">
  <advance width="1243.9"/>
  <unicode hex="00AB"/>
  <outline>
    <contour>
      <point x="538.4" y="184.0" type="line"/>
      <point x="698.1" y="184.0" type="line"/>
      <point x="437.7" y="560.4" type="line"/>
      <point x="707.3" y="940.0" type="line"/>
      <point x="544.5" y="940.0" type="line"/>
      <point x="264.7" y="560.4" type="line"/>
    </contour>
    <contour>
      <point x="914.8" y="184.0" type="line"/>
      <point x="1074.6" y="184.0" type="line"/>
      <point x="814.1" y="560.4" type="line"/>
      <point x="1081.7" y="940.0" type="line"/>
      <point x="919.9" y="940.0" type="line"/>
      <point x="641.2" y="560.4" type="line"/>
    </contour>
  </outline>
</glyph>
<glyph name="logicalnot" format="1">
  <advance width="1568.9"/>
  <unicode hex="00AC"/>
  <outline>
    <contour>
      <point x="1128.9" y="256.1" type="line"/>
      <point x="1281.5" y="256.1" type="line"/>
      <point x="1281.5" y="825.9" type="line"/>
      <point x="215.3" y="825.9" type="line"/>
      <point x="215.3" y="684.4" type="line"/>
      <point x="1128.9" y="684.4" type="line"/>
    </contour>
  </outline>
</glyph>
<glyph name="macron" format="1">
  <advance width="783.4"/>
  <unicode hex="00AF"/>
  <outline>
    <contour>
      <point x="85.0" y="1273.1" type="line"/>
      <point x="667.0" y="1273.1" type="line"/>
      <point x="667.0" y="1409.4" type="line"/>
      <point x="85.0" y="1409.4" type="line"/>
    </contour>
  </outline>
</glyph>
<glyph name="plusminus" format="1">
  <advance width="1568.9"/>
  <unicode hex="00B1"/>
  <outline>
    <contour>
      <point x="669.3" y="226.9" type="line"/>
      <point x="822.9" y="226.9" type="line"/>
      <point x="822.9" y="605.4" type="line"/>
      <point x="1277.7" y="605.4" type="line"/>
      <point x="1277.7" y="745.8" type="line"/>
      <point x="818.8" y="745.8" type="line"/>
      <point x="818.8" y="1126.2" type="line"/>
      <point x="667.3" y="1126.2" type="line"/>
      <point x="667.3" y="745.8" type="line"/>
      <point x="202.3" y="745.8" type="line"/>
      <point x="214.6" y="605.4" type="line"/>
      <point x="669.3" y="605.4" type="line"/>
    </contour>
    <contour>
      <point x="214.6" y="0.0" type="line"/>
      <point x="1281.8" y="0.0" type="line"/>
      <point x="1281.8" y="140.5" type="line"/>
      <point x="214.6" y="140.5" type="line"/>
    </contour>
  </outline>
</glyph>
<glyph name="uni00B3" format="1">
  <advance width="1280.5"/>
  <unicode hex="00B3"/>
  <outline>
    <contour>
      <point x="503.2" y="630.6" type="curve" smooth="yes"/>
      <point x="543.9" y="630.6"/>
      <point x="583.6" y="636.7"/>
      <point x="620.2" y="647.9" type="curve" smooth="yes"/>
      <point x="719.9" y="679.4"/>
      <point x="807.4" y="754.8"/>
      <point x="807.4" y="883.0" type="curve" smooth="yes"/>
      <point x="807.4" y="987.7"/>
      <point x="752.5" y="1050.8"/>
      <point x="677.1" y="1084.4" type="curve"/>
      <point x="740.2" y="1118.0"/>
      <point x="786.0" y="1178.0"/>
      <point x="786.0" y="1268.5" type="curve" smooth="yes"/>
      <point x="786.0" y="1306.2"/>
      <point x="777.9" y="1338.8"/>
      <point x="762.6" y="1367.3" type="curve" smooth="yes"/>
      <point x="719.9" y="1446.6"/>
      <point x="630.4" y="1500.5"/>
      <point x="509.3" y="1500.5" type="curve" smooth="yes"/>
      <point x="403.5" y="1500.5"/>
      <point x="308.8" y="1452.7"/>
      <point x="252.9" y="1397.7" type="curve"/>
      <point x="311.9" y="1300.1" type="line"/>
      <point x="361.8" y="1340.7"/>
      <point x="423.8" y="1379.4"/>
      <point x="507.2" y="1379.4" type="curve" smooth="yes"/>
      <point x="589.6" y="1379.4"/>
      <point x="650.7" y="1347.9"/>
      <point x="650.7" y="1265.5" type="curve" smooth="yes"/>
      <point x="650.7" y="1163.7"/>
      <point x="553.1" y="1142.4"/>
      <point x="450.3" y="1142.4" type="curve" smooth="yes"/>
      <point x="400.4" y="1142.4" type="line"/>
      <point x="400.4" y="1021.4" type="line"/>
      <point x="426.8" y="1021.4" type="line" smooth="yes"/>
      <point x="434.9" y="1021.4"/>
      <point x="451.1" y="1022.3"/>
      <point x="457.4" y="1022.3" type="curve" smooth="yes"/>
      <point x="572.3" y="1022.3"/>
      <point x="676.1" y="999.0"/>
      <point x="676.1" y="886.0" type="curve" smooth="yes"/>
      <point x="676.1" y="792.4"/>
      <point x="593.7" y="747.6"/>
      <point x="498.1" y="747.6" type="curve" smooth="yes"/>
      <point x="432.0" y="747.6"/>
      <point x="370.9" y="774.1"/>
      <point x="313.9" y="826.9" type="curve"/>
      <point x="252.9" y="729.3" type="line"/>
      <point x="310.9" y="671.3"/>
      <point x="394.3" y="630.6"/>
    </contour>
  </outline>
</glyph>
<glyph name="acute" format="1">
  <advance width="653.1"/>
  <unicode hex="00B4"/>
  <outline>
    <contour>
      <point x="188.3" y="1261.2" type="line"/>
      <point x="327.6" y="1261.2" type="line"/>
      <point x="641.0" y="1586.8" type="line"/>
      <point x="418.3" y="1586.8" type="line"/>
    </contour>
  </outline>
</glyph>
<glyph name="paragraph" format="1">
  <advance width="1306.3"/>
  <unicode hex="00B6"/>
  <outline>
    <contour>
      <point x="455.9" y="-159.3" type="line"/>
      <point x="601.5" y="-159.3" type="line"/>
      <point x="601.5" y="1341.4" type="line"/>
      <point x="813.1" y="1341.4" type="line"/>
      <point x="813.1" y="-159.3" type="line"/>
      <point x="944.4" y="-159.3" type="line"/>
      <point x="944.4" y="1341.4" type="line"/>
      <point x="1032.8" y="1341.4" type="line"/>
      <point x="1032.8" y="1467.6" type="line"/>
      <point x="640.2" y="1467.6" type="line" smooth="yes"/>
      <point x="371.6" y="1467.6"/>
      <point x="115.1" y="1409.6"/>
      <point x="115.1" y="1141.0" type="curve" smooth="yes"/>
      <point x="115.1" y="1089.1"/>
      <point x="124.3" y="1041.3"/>
      <point x="142.6" y="998.6" type="curve" smooth="yes"/>
      <point x="191.5" y="883.6"/>
      <point x="297.3" y="793.1"/>
      <point x="455.9" y="791.0" type="curve"/>
    </contour>
  </outline>
</glyph>
<glyph name="uni00B9" format="1">
  <advance width="1280.5"/>
  <unicode hex="00B9"/>
  <outline>
    <contour>
      <point x="288.8" y="650.0" type="line"/>
      <point x="660.1" y="650.0" type="line"/>
      <point x="660.1" y="768.1" type="line"/>
      <point x="536.0" y="768.1" type="line"/>
      <point x="536.0" y="1487.3" type="line"/>
      <point x="429.1" y="1472.0" type="line"/>
      <point x="376.2" y="1440.5"/>
      <point x="326.3" y="1413.1"/>
      <point x="258.2" y="1391.7" type="curve"/>
      <point x="257.2" y="1259.4" type="line"/>
      <point x="308.1" y="1278.7"/>
      <point x="367.0" y="1305.1"/>
      <point x="411.8" y="1328.6" type="curve"/>
      <point x="411.8" y="1223.8" type="line" smooth="yes"/>
      <point x="411.8" y="1170.9"/>
      <point x="412.8" y="1121.1"/>
      <point x="412.8" y="1061.0" type="curve" smooth="yes"/>
      <point x="412.8" y="771.1" type="line"/>
      <point x="288.8" y="771.1" type="line"/>
    </contour>
  </outline>
</glyph>
<glyph name="ordmasculine" format="1">
  <advance width="886.7"/>
  <unicode hex="00BA"/>
  <outline>
    <contour>
      <point x="426.3" y="825.4" type="curve" smooth="yes"/>
      <point x="485.4" y="825.4"/>
      <point x="538.2" y="834.6"/>
      <point x="583.0" y="853.9" type="curve" smooth="yes"/>
      <point x="705.1" y="904.8"/>
      <point x="790.6" y="1015.6"/>
      <point x="790.6" y="1185.5" type="curve" smooth="yes"/>
      <point x="790.6" y="1236.3"/>
      <point x="782.4" y="1283.2"/>
      <point x="767.2" y="1327.0" type="curve" smooth="yes"/>
      <point x="720.4" y="1459.3"/>
      <point x="604.4" y="1546.8"/>
      <point x="425.4" y="1546.8" type="curve" smooth="yes"/>
      <point x="366.4" y="1546.8"/>
      <point x="314.4" y="1536.6"/>
      <point x="268.7" y="1518.3" type="curve" smooth="yes"/>
      <point x="145.6" y="1467.4"/>
      <point x="57.1" y="1358.5"/>
      <point x="57.1" y="1188.6" type="curve" smooth="yes"/>
      <point x="57.1" y="961.8"/>
      <point x="197.4" y="825.4"/>
    </contour>
    <contour>
      <point x="426.3" y="935.2" type="curve" smooth="yes"/>
      <point x="276.8" y="935.2"/>
      <point x="199.5" y="1039.1"/>
      <point x="199.5" y="1187.6" type="curve" smooth="yes"/>
      <point x="199.5" y="1331.1"/>
      <point x="278.8" y="1437.9"/>
      <point x="423.3" y="1437.9" type="curve" smooth="yes"/>
      <point x="570.8" y="1437.9"/>
      <point x="650.2" y="1331.1"/>
      <point x="650.2" y="1183.6" type="curve" smooth="yes"/>
      <point x="650.2" y="1041.1"/>
      <point x="569.8" y="935.2"/>
    </contour>
  </outline>
</glyph>
<glyph name="onehalf" format="1">
  <advance width="2957.2"/>
  <unicode hex="00BD"/>
  <outline>
    <contour>
      <point x="642.6" y="614.6" type="line"/>
      <point x="1198.0" y="614.6" type="line"/>
      <point x="1198.0" y="734.6" type="line"/>
      <point x="827.7" y="734.6" type="line"/>
      <point x="921.3" y="816.0"/>
      <point x="1015.9" y="894.3"/>
      <point x="1091.2" y="984.8" type="curve" smooth="yes"/>
      <point x="1146.2" y="1051.0"/>
      <point x="1199.1" y="1127.3"/>
      <point x="1199.1" y="1234.1" type="curve" smooth="yes"/>
      <point x="1199.1" y="1269.7"/>
      <point x="1192.0" y="1301.2"/>
      <point x="1178.8" y="1329.8" type="curve" smooth="yes"/>
      <point x="1139.1" y="1412.2"/>
      <point x="1051.5" y="1465.1"/>
      <point x="931.5" y="1465.1" type="curve" smooth="yes"/>
      <point x="791.0" y="1465.1"/>
      <point x="694.5" y="1393.9"/>
      <point x="650.7" y="1292.1" type="curve"/>
      <point x="737.2" y="1212.7" type="line"/>
      <point x="770.8" y="1284.0"/>
      <point x="828.8" y="1346.1"/>
      <point x="925.5" y="1346.1" type="curve" smooth="yes"/>
      <point x="1005.8" y="1346.1"/>
      <point x="1067.8" y="1308.5"/>
      <point x="1067.8" y="1232.1" type="curve" smooth="yes"/>
      <point x="1067.8" y="1203.6"/>
      <point x="1057.7" y="1172.1"/>
      <point x="1036.3" y="1137.5" type="curve" smooth="yes"/>
      <point x="1015.0" y="1102.9"/>
      <point x="986.4" y="1065.2"/>
      <point x="948.8" y="1023.5" type="curve" smooth="yes"/>
      <point x="858.2" y="923.9"/>
      <point x="750.4" y="826.1"/>
      <point x="642.6" y="727.4" type="curve"/>
    </contour>
    <contour>
      <point x="1840.1" y="614.6" type="line"/>
      <point x="2211.4" y="614.6" type="line"/>
      <point x="2211.4" y="732.5" type="line"/>
      <point x="2087.2" y="732.5" type="line"/>
      <point x="2087.2" y="1451.8" type="line"/>
      <point x="1980.4" y="1436.6" type="line"/>
      <point x="1927.5" y="1405.0"/>
      <point x="1877.8" y="1377.6"/>
      <point x="1809.6" y="1356.2" type="curve"/>
      <point x="1808.5" y="1224.0" type="line"/>
      <point x="1859.4" y="1243.3"/>
      <point x="1918.4" y="1269.7"/>
      <point x="1963.2" y="1293.1" type="curve"/>
      <point x="1963.2" y="1188.4" type="line" smooth="yes"/>
      <point x="1963.2" y="1135.5"/>
      <point x="1964.2" y="1085.6"/>
      <point x="1964.2" y="1025.5" type="curve" smooth="yes"/>
      <point x="1964.2" y="735.6" type="line"/>
      <point x="1840.1" y="735.6" type="line"/>
    </contour>
    <contour>
      <point x="-362.6" y="0.0" type="line"/>
      <point x="-209.0" y="0.0" type="line"/>
      <point x="709.7" y="1461.0" type="line"/>
      <point x="558.1" y="1461.0" type="line"/>
    </contour>
  </outline>
</glyph>
<glyph name="AE" format="1">
  <advance width="2182.3"/>
  <unicode hex="00C6"/>
  <outline>
    <contour>
      <point x="5.4" y="0.0" type="line"/>
      <point x="204.8" y="0.0" type="line"/>
      <point x="434.7" y="404.9" type="line"/>
      <point x="1092.0" y="404.9" type="line"/>
      <point x="1123.5" y="0.0" type="line"/>
      <point x="1934.4" y="0.0" type="line"/>
      <point x="1934.4" y="150.6" type="line"/>
      <point x="1279.1" y="150.6" type="line"/>
      <point x="1237.4" y="683.7" type="line"/>
      <point x="1869.2" y="683.7" type="line"/>
      <point x="1869.2" y="834.2" type="line"/>
      <point x="1218.1" y="834.2" type="line"/>
      <point x="1179.5" y="1330.8" type="line"/>
      <point x="1911.0" y="1330.8" type="line"/>
      <point x="1911.0" y="1481.4" type="line"/>
      <point x="850.9" y="1481.4" type="line"/>
    </contour>
    <contour>
      <point x="515.1" y="555.5" type="line"/>
      <point x="960.7" y="1330.8" type="line"/>
      <point x="1011.6" y="1330.8" type="line"/>
      <point x="1072.7" y="555.5" type="line"/>
    </contour>
  </outline>
</glyph>
<glyph name="Oslash" format="1">
  <advance width="1789.6"/>
  <unicode hex="00D8"/>
  <outline>
    <contour>
      <point x="536.9" y="-177.6" type="line"/>
      <point x="612.2" y="-0.5" type="line"/>
      <point x="684.8" y="-22.8"/>
      <point x="764.4" y="-34.8"/>
      <point x="851.7" y="-34.8" type="curve" smooth="yes"/>
      <point x="1333.5" y="-34.8"/>
      <point x="1581.5" y="332.4"/>
      <point x="1581.5" y="731.2" type="curve" smooth="yes"/>
      <point x="1581.5" y="1022.9"/>
      <point x="1454.1" y="1285.6"/>
      <point x="1212.8" y="1414.4" type="curve"/>
      <point x="1290.9" y="1598.9" type="line"/>
      <point x="1163.7" y="1643.6" type="line"/>
      <point x="1088.5" y="1465.9" type="line"/>
      <point x="1017.0" y="1487.2"/>
      <point x="937.7" y="1499.1"/>
      <point x="851.7" y="1499.1" type="curve" smooth="yes"/>
      <point x="369.5" y="1499.1"/>
      <point x="121.3" y="1131.8"/>
      <point x="121.3" y="731.2" type="curve" smooth="yes"/>
      <point x="121.3" y="440.6"/>
      <point x="248.8" y="177.9"/>
      <point x="491.0" y="49.1" type="curve"/>
      <point x="413.8" y="-132.8" type="line"/>
    </contour>
    <contour>
      <point x="555.9" y="204.0" type="line"/>
      <point x="407.5" y="300.8"/>
      <point x="308.5" y="480.3"/>
      <point x="308.5" y="732.0" type="curve" smooth="yes"/>
      <point x="308.5" y="1137.9"/>
      <point x="568.9" y="1344.9"/>
      <point x="851.7" y="1344.9" type="curve" smooth="yes"/>
      <point x="912.2" y="1344.9"/>
      <point x="970.2" y="1335.8"/>
      <point x="1025.7" y="1317.8" type="curve"/>
    </contour>
    <contour>
      <point x="851.7" y="119.0" type="curve" smooth="yes"/>
      <point x="789.9" y="119.0"/>
      <point x="730.7" y="128.1"/>
      <point x="674.9" y="147.2" type="curve"/>
      <point x="1146.8" y="1259.1" type="line"/>
      <point x="1294.0" y="1162.3"/>
      <point x="1393.8" y="983.7"/>
      <point x="1393.8" y="732.0" type="curve" smooth="yes"/>
      <point x="1393.8" y="326.0"/>
      <point x="1133.8" y="119.0"/>
    </contour>
  </outline>
</glyph>
<glyph name="germandbls" format="1">
  <advance width="1352.6"/>
  <unicode hex="00DF"/>
  <outline>
    <contour>
      <point x="816.0" y="-24.7" type="curve" smooth="yes"/>
      <point x="865.9" y="-24.7"/>
      <point x="913.7" y="-15.6"/>
      <point x="960.5" y="1.7" type="curve" smooth="yes"/>
      <point x="1092.7" y="51.6"/>
      <point x="1203.6" y="165.5"/>
      <point x="1203.6" y="345.6" type="curve" smooth="yes"/>
      <point x="1203.6" y="412.7"/>
      <point x="1190.5" y="470.8"/>
      <point x="1162.9" y="521.6" type="curve" smooth="yes"/>
      <point x="1082.6" y="671.2"/>
      <point x="921.8" y="758.7"/>
      <point x="744.8" y="810.6" type="curve" smooth="yes"/>
      <point x="725.5" y="816.7"/>
      <point x="715.3" y="822.7"/>
      <point x="715.3" y="828.8" type="curve" smooth="yes"/>
      <point x="715.3" y="840.1"/>
      <point x="732.6" y="847.2"/>
      <point x="741.8" y="851.2" type="curve" smooth="yes"/>
      <point x="812.0" y="881.8"/>
      <point x="877.1" y="930.6"/>
      <point x="928.9" y="983.5" type="curve" smooth="yes"/>
      <point x="981.9" y="1036.4"/>
      <point x="1038.8" y="1110.6"/>
      <point x="1038.8" y="1211.4" type="curve" smooth="yes"/>
      <point x="1038.8" y="1256.2"/>
      <point x="1029.7" y="1297.9"/>
      <point x="1011.3" y="1337.6" type="curve" smooth="yes"/>
      <point x="951.2" y="1463.7"/>
      <point x="812.0" y="1536.0"/>
      <point x="624.7" y="1536.0" type="curve" smooth="yes"/>
      <point x="554.5" y="1536.0"/>
      <point x="492.5" y="1525.8"/>
      <point x="437.5" y="1504.4" type="curve" smooth="yes"/>
      <point x="281.8" y="1443.3"/>
      <point x="187.2" y="1303.1"/>
      <point x="187.2" y="1088.3" type="curve" smooth="yes"/>
      <point x="189.3" y="-1.4" type="line"/>
      <point x="357.1" y="-1.4" type="line"/>
      <point x="357.1" y="101.4"/>
      <point x="356.1" y="219.4"/>
      <point x="356.1" y="330.4" type="curve" smooth="yes"/>
      <point x="356.1" y="456.5"/>
      <point x="354.1" y="595.9"/>
      <point x="354.1" y="722.0" type="curve" smooth="yes"/>
      <point x="354.1" y="832.9"/>
      <point x="353.1" y="952.0"/>
      <point x="353.1" y="1054.8" type="curve" smooth="yes"/>
      <point x="353.1" y="1248.1"/>
      <point x="430.4" y="1404.7"/>
      <point x="623.7" y="1404.7" type="curve" smooth="yes"/>
      <point x="753.9" y="1404.7"/>
      <point x="847.6" y="1339.7"/>
      <point x="847.6" y="1210.4" type="curve" smooth="yes"/>
      <point x="847.6" y="1175.8"/>
      <point x="841.5" y="1143.2"/>
      <point x="828.3" y="1112.8" type="curve" smooth="yes"/>
      <point x="786.6" y="1017.1"/>
      <point x="703.1" y="949.0"/>
      <point x="608.4" y="906.2" type="curve"/>
      <point x="592.1" y="767.8" type="line"/>
      <point x="693.9" y="709.9"/>
      <point x="800.7" y="650.8"/>
      <point x="883.1" y="578.5" type="curve" smooth="yes"/>
      <point x="950.2" y="519.6"/>
      <point x="1013.4" y="443.3"/>
      <point x="1013.4" y="326.3" type="curve" smooth="yes"/>
      <point x="1013.4" y="199.1"/>
      <point x="937.1" y="109.5"/>
      <point x="812.0" y="109.5" type="curve" smooth="yes"/>
      <point x="701.1" y="109.5"/>
      <point x="617.6" y="174.6"/>
      <point x="555.6" y="245.9" type="curve"/>
      <point x="489.4" y="139.1" type="line"/>
      <point x="562.6" y="46.4"/>
      <point x="669.5" y="-24.7"/>
    </contour>
  </outline>
</glyph>
<glyph name="kgreenlandic" format="1">
  <advance width="1164.3"/>
  <unicode hex="0138"/>
  <outline>
    <contour>
      <point x="191.6" y="0.0" type="line"/>
      <point x="359.4" y="0.0" type="line"/>
      <point x="359.4" y="479.2" type="line"/>
      <point x="878.3" y="0.0" type="line"/>
      <point x="1101.1" y="0.0" type="line"/>
      <point x="906.8" y="177.0"/>
      <point x="717.6" y="343.8"/>
      <point x="523.3" y="520.9" type="curve"/>
      <point x="1062.5" y="1043.9" type="line"/>
      <point x="833.5" y="1043.9" type="line"/>
      <point x="359.4" y="566.7" type="line"/>
      <point x="359.4" y="1043.9" type="line"/>
      <point x="191.6" y="1043.9" type="line"/>
    </contour>
  </outline>
</glyph>
<glyph name="lslash" format="1">
  <advance width="541.2"/>
  <unicode hex="0142"/>
  <outline>
    <contour>
      <point x="170.9" y="0.0" type="line"/>
      <point x="338.8" y="0.0" type="line"/>
      <point x="338.8" y="801.7" type="line"/>
      <point x="512.8" y="905.5" type="line"/>
      <point x="512.8" y="1044.9" type="line"/>
      <point x="338.8" y="941.1" type="line"/>
      <point x="338.8" y="1518.0" type="line"/>
      <point x="170.9" y="1518.0" type="line"/>
      <point x="170.9" y="840.4" type="line"/>
      <point x="0.0" y="738.6" type="line"/>
      <point x="0.0" y="599.2" type="line"/>
      <point x="170.9" y="701.0" type="line"/>
    </contour>
  </outline>
</glyph>
<glyph name="florin" format="1">
  <advance width="1280.5"/>
  <unicode hex="0192"/>
  <outline>
    <contour>
      <point x="184.3" y="-357.3" type="curve" smooth="yes"/>
      <point x="246.4" y="-357.3"/>
      <point x="299.4" y="-345.0"/>
      <point x="340.1" y="-319.6" type="curve" smooth="yes"/>
      <point x="469.3" y="-241.3"/>
      <point x="511.9" y="-72.3"/>
      <point x="545.6" y="102.6" type="curve"/>
      <point x="674.8" y="797.5" type="line"/>
      <point x="891.5" y="797.5" type="line"/>
      <point x="901.6" y="939.9" type="line"/>
      <point x="698.2" y="939.9" type="line"/>
      <point x="734.8" y="1139.4" type="line" smooth="yes"/>
      <point x="753.2" y="1238.1"/>
      <point x="793.8" y="1297.0"/>
      <point x="910.9" y="1297.0" type="curve" smooth="yes"/>
      <point x="951.5" y="1297.0"/>
      <point x="988.1" y="1287.9"/>
      <point x="1021.7" y="1274.7" type="curve"/>
      <point x="1029.8" y="1422.2" type="line"/>
      <point x="985.0" y="1433.4"/>
      <point x="935.2" y="1441.5"/>
      <point x="884.4" y="1441.5" type="curve" smooth="yes"/>
      <point x="658.5" y="1441.5"/>
      <point x="574.1" y="1291.0"/>
      <point x="547.6" y="1093.6" type="curve"/>
      <point x="524.2" y="939.9" type="line"/>
      <point x="352.3" y="939.9" type="line"/>
      <point x="342.1" y="797.5" type="line"/>
      <point x="499.8" y="797.5" type="line"/>
      <point x="447.9" y="527.9"/>
      <point x="408.2" y="245.0"/>
      <point x="344.1" y="-12.4" type="curve" smooth="yes"/>
      <point x="321.7" y="-105.0"/>
      <point x="284.1" y="-216.8"/>
      <point x="170.2" y="-216.8" type="curve" smooth="yes"/>
      <point x="144.8" y="-216.8"/>
      <point x="118.3" y="-211.8"/>
      <point x="90.8" y="-200.6" type="curve"/>
      <point x="78.6" y="-341.0" type="line"/>
      <point x="117.2" y="-352.2"/>
      <point x="152.8" y="-357.3"/>
    </contour>
  </outline>
</glyph>
<glyph name="uni0216" format="1">
  <advance width="1595.5"/>
  <unicode hex="0216"/>
  <outline>
    <contour>
      <point x="776.4" y="-23.7" type="curve" smooth="yes"/>
      <point x="1144.7" y="-23.7"/>
      <point x="1344.1" y="193.1"/>
      <point x="1346.1" y="559.3" type="curve"/>
      <point x="1346.1" y="1480.1" type="line"/>
      <point x="1172.2" y="1480.1" type="line"/>
      <point x="1172.2" y="547.1" type="line" smooth="yes"/>
      <point x="1172.2" y="282.6"/>
      <point x="1030.8" y="123.9"/>
      <point x="774.4" y="123.9" type="curve" smooth="yes"/>
      <point x="497.7" y="123.9"/>
      <point x="356.2" y="263.3"/>
      <point x="356.2" y="554.2" type="curve" smooth="yes"/>
      <point x="356.2" y="1480.1" type="line"/>
      <point x="181.2" y="1480.1" type="line"/>
      <point x="181.2" y="549.2" type="line" smooth="yes"/>
      <point x="181.2" y="158.5"/>
      <point x="385.7" y="-23.7"/>
    </contour>
    <contour>
      <point x="475.3" y="1675.4" type="curve"/>
      <point x="563.7" y="1675.4" type="line"/>
      <point x="579.0" y="1764.9"/>
      <point x="653.3" y="1806.6"/>
      <point x="757.1" y="1806.6" type="curve" smooth="yes"/>
      <point x="860.9" y="1806.6"/>
      <point x="941.3" y="1760.9"/>
      <point x="961.6" y="1675.4" type="curve"/>
      <point x="1049.1" y="1675.4" type="line"/>
      <point x="1035.9" y="1832.1"/>
      <point x="933.1" y="1915.5"/>
      <point x="764.3" y="1915.5" type="curve" smooth="yes"/>
      <point x="590.3" y="1915.5"/>
      <point x="488.5" y="1838.2"/>
    </contour>
  </outline>
</glyph>
<glyph name="uni0237" format="1">
  <advance width="541.2"/>
  <unicode hex="0237"/>
  <outline>
    <contour>
      <point x="15.4" y="-461.7" type="curve" smooth="yes"/>
      <point x="62.2" y="-461.7"/>
      <point x="101.9" y="-454.5"/>
      <point x="136.5" y="-439.3" type="curve" smooth="yes"/>
      <point x="295.1" y="-370.1"/>
      <point x="339.9" y="-177.8"/>
      <point x="339.9" y="49.1" type="curve" smooth="yes"/>
      <point x="339.9" y="1018.7" type="line"/>
      <point x="172.0" y="1018.7" type="line"/>
      <point x="172.0" y="6.3" type="line" smooth="yes"/>
      <point x="172.0" y="-173.7"/>
      <point x="134.4" y="-313.2"/>
      <point x="-24.3" y="-313.2" type="curve" smooth="yes"/>
      <point x="-54.8" y="-313.2"/>
      <point x="-79.3" y="-308.0"/>
      <point x="-109.8" y="-303.0" type="curve"/>
      <point x="-108.8" y="-448.4" type="line"/>
      <point x="-70.1" y="-457.5"/>
      <point x="-29.4" y="-461.7"/>
    </contour>
  </outline>
</glyph>
<glyph name="circumflex" format="1">
  <advance width="752.2"/>
  <unicode hex="02C6"/>
  <outline>
    <contour>
      <point x="34.2" y="1259.1" type="line"/>
      <point x="169.4" y="1259.1" type="line"/>
      <point x="346.1" y="1471.9" type="line"/>
      <point x="522.2" y="1259.1" type="line"/>
      <point x="663.6" y="1259.1" type="line"/>
      <point x="428.2" y="1588.8" type="line"/>
      <point x="268.5" y="1588.8" type="line"/>
    </contour>
  </outline>
</glyph>
<glyph name="breve" format="1">
  <advance width="676.8"/>
  <unicode hex="02D8"/>
  <outline>
    <contour>
      <point x="323.4" y="1310.7" type="curve" smooth="yes"/>
      <point x="492.3" y="1310.7"/>
      <point x="595.1" y="1394.2"/>
      <point x="608.3" y="1550.9" type="curve"/>
      <point x="520.7" y="1550.9" type="line"/>
      <point x="500.4" y="1465.4"/>
      <point x="420.1" y="1419.6"/>
      <point x="316.3" y="1419.6" type="curve" smooth="yes"/>
      <point x="212.5" y="1419.6"/>
      <point x="138.2" y="1461.4"/>
      <point x="123.0" y="1550.9" type="curve"/>
      <point x="34.5" y="1550.9" type="line"/>
      <point x="47.7" y="1388.1"/>
      <point x="149.5" y="1310.7"/>
    </contour>
  </outline>
</glyph>
<glyph name="ogonek" format="1">
  <advance width="546.6"/>
  <unicode hex="02DB"/>
  <outline>
    <contour>
      <point x="273.5" y="-419.7" type="curve" smooth="yes"/>
      <point x="338.6" y="-419.7"/>
      <point x="406.8" y="-409.5"/>
      <point x="453.5" y="-390.2" type="curve"/>
      <point x="453.5" y="-277.3" type="line"/>
      <point x="406.8" y="-295.6"/>
      <point x="362.0" y="-308.8"/>
      <point x="296.8" y="-308.8" type="curve" smooth="yes"/>
      <point x="244.9" y="-308.8"/>
      <point x="195.1" y="-277.3"/>
      <point x="195.1" y="-225.4" type="curve" smooth="yes"/>
      <point x="195.1" y="-209.1"/>
      <point x="200.1" y="-192.8"/>
      <point x="210.3" y="-176.5" type="curve" smooth="yes"/>
      <point x="253.1" y="-110.4"/>
      <point x="331.4" y="-65.7"/>
      <point x="401.6" y="-22.9" type="curve"/>
      <point x="270.4" y="-10.7" type="line"/>
      <point x="215.4" y="-37.2"/>
      <point x="160.4" y="-72.8"/>
      <point x="119.8" y="-113.5" type="curve" smooth="yes"/>
      <point x="86.2" y="-147.1"/>
      <point x="51.6" y="-192.8"/>
      <point x="51.6" y="-251.9" type="curve" smooth="yes"/>
      <point x="51.6" y="-279.3"/>
      <point x="57.8" y="-303.7"/>
      <point x="68.9" y="-324.0" type="curve" smooth="yes"/>
      <point x="103.5" y="-386.1"/>
      <point x="177.8" y="-419.7"/>
    </contour>
  </outline>
</glyph>
<glyph name="hungarumlaut" format="1">
  <advance width="1042.5"/>
  <unicode hex="02DD"/>
  <outline>
    <contour>
      <point x="174.4" y="1263.3" type="line"/>
      <point x="294.4" y="1263.3" type="line"/>
      <point x="574.2" y="1581.8" type="line"/>
      <point x="395.1" y="1581.8" type="line"/>
    </contour>
    <contour>
      <point x="446.0" y="1263.3" type="line"/>
      <point x="568.1" y="1263.3" type="line"/>
      <point x="848.9" y="1581.8" type="line"/>
      <point x="669.8" y="1581.8" type="line"/>
    </contour>
  </outline>
</glyph>
<glyph name="dblgravecmb" format="1">
  <advance width="170.4"/>
  <unicode hex="030F"/>
  <outline>
    <contour>
      <point x="-416.9" y="1263.3" type="line"/>
      <point x="-294.8" y="1263.3" type="line"/>
      <point x="-518.7" y="1581.8" type="line"/>
      <point x="-697.7" y="1581.8" type="line"/>
    </contour>
    <contour>
      <point x="-143.3" y="1263.3" type="line"/>
      <point x="-23.2" y="1263.3" type="line"/>
      <point x="-244.0" y="1581.8" type="line"/>
      <point x="-423.0" y="1581.8" type="line"/>
    </contour>
  </outline>
</glyph>
<glyph name="uni0311" format="1">
  <advance width="676.8"/>
  <unicode hex="0311"/>
  <outline>
    <contour>
      <point x="34.5" y="1310.7" type="curve"/>
      <point x="123.0" y="1310.7" type="line"/>
      <point x="138.2" y="1400.3"/>
      <point x="212.5" y="1442.0"/>
      <point x="316.3" y="1442.0" type="curve" smooth="yes"/>
      <point x="420.1" y="1442.0"/>
      <point x="500.4" y="1396.2"/>
      <point x="520.7" y="1310.7" type="curve"/>
      <point x="608.3" y="1310.7" type="line"/>
      <point x="595.1" y="1467.4"/>
      <point x="492.3" y="1550.9"/>
      <point x="323.4" y="1550.9" type="curve" smooth="yes"/>
      <point x="149.5" y="1550.9"/>
      <point x="47.7" y="1473.5"/>
    </contour>
  </outline>
</glyph>
<glyph name="commaaccentcomb" format="1">
  <advance width="95.1"/>
  <unicode hex="0326"/>
  <outline>
    <contour>
      <point x="-402.0" y="-672.6" type="line"/>
      <point x="-268.7" y="-672.6" type="line"/>
      <point x="-103.0" y="-201.5" type="line"/>
      <point x="-293.2" y="-201.5" type="line"/>
    </contour>
  </outline>
</glyph>
<glyph name="uni03A9" format="1">
  <advance width="1725.0"/>
  <unicode hex="03A9"/>
  <outline>
    <contour>
      <point x="111.2" y="0.0" type="line"/>
      <point x="661.7" y="0.0" type="line"/>
      <point x="658.6" y="123.1" type="line"/>
      <point x="605.7" y="157.7"/>
      <point x="558.0" y="198.4"/>
      <point x="514.2" y="244.2" type="curve" smooth="yes"/>
      <point x="398.3" y="367.3"/>
      <point x="303.5" y="540.3"/>
      <point x="303.5" y="772.2" type="curve" smooth="yes"/>
      <point x="303.5" y="854.6"/>
      <point x="315.8" y="929.9"/>
      <point x="341.2" y="999.1" type="curve" smooth="yes"/>
      <point x="411.4" y="1188.3"/>
      <point x="570.1" y="1331.8"/>
      <point x="823.4" y="1331.8" type="curve" smooth="yes"/>
      <point x="907.9" y="1331.8"/>
      <point x="982.2" y="1316.5"/>
      <point x="1045.3" y="1286.0" type="curve" smooth="yes"/>
      <point x="1220.2" y="1201.6"/>
      <point x="1331.2" y="1021.5"/>
      <point x="1331.2" y="767.1" type="curve" smooth="yes"/>
      <point x="1331.2" y="699.0"/>
      <point x="1322.0" y="632.8"/>
      <point x="1303.6" y="569.8" type="curve" smooth="yes"/>
      <point x="1247.7" y="373.4"/>
      <point x="1123.6" y="224.9"/>
      <point x="971.0" y="123.1" type="curve"/>
      <point x="975.1" y="0.0" type="line"/>
      <point x="1505.1" y="0.0" type="line"/>
      <point x="1514.3" y="140.5" type="line"/>
      <point x="1180.5" y="139.4" type="line"/>
      <point x="1269.0" y="209.6"/>
      <point x="1351.5" y="301.1"/>
      <point x="1410.5" y="404.9" type="curve" smooth="yes"/>
      <point x="1467.4" y="506.7"/>
      <point x="1512.2" y="631.8"/>
      <point x="1512.2" y="785.4" type="curve" smooth="yes"/>
      <point x="1512.2" y="997.0"/>
      <point x="1436.0" y="1162.9"/>
      <point x="1328.1" y="1275.8" type="curve" smooth="yes"/>
      <point x="1217.2" y="1391.8"/>
      <point x="1049.3" y="1474.3"/>
      <point x="828.5" y="1474.3" type="curve" smooth="yes"/>
      <point x="611.8" y="1474.3"/>
      <point x="438.9" y="1397.9"/>
      <point x="322.9" y="1288.1" type="curve" smooth="yes"/>
      <point x="204.9" y="1177.2"/>
      <point x="121.4" y="1011.3"/>
      <point x="121.4" y="789.5" type="curve" smooth="yes"/>
      <point x="121.4" y="719.3"/>
      <point x="129.6" y="651.2"/>
      <point x="145.9" y="588.1" type="curve" smooth="yes"/>
      <point x="194.7" y="391.7"/>
      <point x="305.6" y="244.2"/>
      <point x="448.0" y="139.4" type="curve"/>
      <point x="100.0" y="140.5" type="line"/>
    </contour>
  </outline>
</glyph>
<glyph name="uni03BC" format="1">
  <advance width="1309.6"/>
  <unicode hex="03BC"/>
  <outline>
    <contour>
      <point x="169.0" y="-217.4" type="line"/>
      <point x="336.8" y="-217.4" type="line"/>
      <point x="336.8" y="19.6" type="line"/>
      <point x="394.8" y="-15.0"/>
      <point x="466.1" y="-35.2"/>
      <point x="558.7" y="-35.2" type="curve" smooth="yes"/>
      <point x="709.3" y="-35.2"/>
      <point x="824.2" y="18.7"/>
      <point x="902.5" y="125.5" type="curve"/>
      <point x="905.6" y="-11.9" type="line"/>
      <point x="1078.5" y="-11.9" type="line"/>
      <point x="1071.4" y="73.6"/>
      <point x="1070.4" y="146.8"/>
      <point x="1070.4" y="238.4" type="curve" smooth="yes"/>
      <point x="1070.4" y="1032.0" type="line"/>
      <point x="902.5" y="1032.0" type="line"/>
      <point x="902.5" y="431.7" type="line" smooth="yes"/>
      <point x="902.5" y="386.9"/>
      <point x="895.4" y="344.2"/>
      <point x="882.2" y="303.5" type="curve" smooth="yes"/>
      <point x="843.5" y="187.5"/>
      <point x="750.9" y="99.0"/>
      <point x="597.3" y="99.0" type="curve" smooth="yes"/>
      <point x="412.1" y="99.0"/>
      <point x="336.8" y="205.8"/>
      <point x="336.8" y="394.1" type="curve" smooth="yes"/>
      <point x="336.8" y="1032.0" type="line"/>
      <point x="169.0" y="1032.0" type="line"/>
    </contour>
  </outline>
</glyph>
<glyph name="pi" format="1">
  <advance width="1386.0"/>
  <unicode hex="03C0"/>
  <outline>
    <contour>
      <point x="1080.5" y="-8.6" type="curve" smooth="yes"/>
      <point x="1128.3" y="-8.6"/>
      <point x="1174.1" y="-2.4"/>
      <point x="1219.9" y="5.7" type="curve"/>
      <point x="1209.7" y="35.2"/>
      <point x="1206.7" y="65.7"/>
      <point x="1206.7" y="101.3" type="curve" smooth="yes"/>
      <point x="1206.7" y="111.5"/>
      <point x="1206.7" y="121.7"/>
      <point x="1207.7" y="131.8" type="curve" smooth="yes"/>
      <point x="1209.7" y="162.3" type="line"/>
      <point x="1180.2" y="153.2"/>
      <point x="1153.7" y="149.1"/>
      <point x="1128.3" y="149.1" type="curve" smooth="yes"/>
      <point x="1042.9" y="149.1"/>
      <point x="1028.5" y="209.2"/>
      <point x="1028.5" y="292.6" type="curve" smooth="yes"/>
      <point x="1028.5" y="922.3" type="line"/>
      <point x="1236.1" y="922.3" type="line"/>
      <point x="1236.1" y="1057.7" type="line"/>
      <point x="376.5" y="1057.7" type="line" smooth="yes"/>
      <point x="232.0" y="1057.7"/>
      <point x="98.7" y="1054.7"/>
      <point x="18.3" y="993.6" type="curve"/>
      <point x="35.6" y="860.3" type="line"/>
      <point x="113.9" y="902.0"/>
      <point x="198.3" y="919.3"/>
      <point x="317.4" y="922.3" type="curve"/>
      <point x="312.4" y="751.3"/>
      <point x="302.2" y="576.4"/>
      <point x="281.8" y="417.7" type="curve" smooth="yes"/>
      <point x="262.5" y="267.1"/>
      <point x="237.1" y="106.4"/>
      <point x="176.0" y="-0.4" type="curve"/>
      <point x="347.9" y="-0.4" type="line"/>
      <point x="360.2" y="20.9"/>
      <point x="371.3" y="51.4"/>
      <point x="381.5" y="89.1" type="curve" smooth="yes"/>
      <point x="447.7" y="340.4"/>
      <point x="467.0" y="629.3"/>
      <point x="489.4" y="922.3" type="curve"/>
      <point x="866.9" y="922.3" type="line"/>
      <point x="866.9" y="283.3" type="line" smooth="yes"/>
      <point x="866.9" y="105.3"/>
      <point x="904.5" y="-8.6"/>
    </contour>
  </outline>
</glyph>
<glyph name="endash" format="1">
  <advance width="1167.5"/>
  <unicode hex="2013"/>
  <outline>
    <contour>
      <point x="-6.4" y="526.2" type="line"/>
      <point x="1102.5" y="526.2" type="line"/>
      <point x="1102.5" y="665.6" type="line"/>
      <point x="-6.4" y="665.6" type="line"/>
    </contour>
  </outline>
</glyph>
<glyph name="quoteleft" format="1">
  <advance width="595.1"/>
  <unicode hex="2018"/>
  <outline>
    <contour>
      <point x="139.9" y="1100.9" type="line"/>
      <point x="325.1" y="1100.9" type="line"/>
      <point x="430.9" y="1548.6" type="line"/>
      <point x="296.6" y="1548.6" type="line"/>
    </contour>
  </outline>
</glyph>
<glyph name="quoteright" format="1">
  <advance width="595.1"/>
  <unicode hex="2019"/>
  <outline>
    <contour>
      <point x="150.7" y="1100.9" type="line"/>
      <point x="285.0" y="1100.9" type="line"/>
      <point x="441.6" y="1548.6" type="line"/>
      <point x="257.5" y="1548.6" type="line"/>
    </contour>
  </outline>
</glyph>
<glyph name="quotesinglbase" format="1">
  <advance width="595.1"/>
  <unicode hex="201A"/>
  <outline>
    <contour>
      <point x="134.5" y="-256.1" type="line"/>
      <point x="269.8" y="-256.1" type="line"/>
      <point x="426.5" y="190.5" type="line"/>
      <point x="242.4" y="190.5" type="line"/>
    </contour>
  </outline>
</glyph>
<glyph name="quotedblleft" format="1">
  <advance width="1101.9"/>
  <unicode hex="201C"/>
  <outline>
    <contour>
      <point x="192.7" y="1100.9" type="line"/>
      <point x="377.8" y="1100.9" type="line"/>
      <point x="484.6" y="1548.6" type="line"/>
      <point x="349.3" y="1548.6" type="line"/>
    </contour>
    <contour>
      <point x="547.7" y="1100.9" type="line"/>
      <point x="733.9" y="1100.9" type="line"/>
      <point x="839.7" y="1548.6" type="line"/>
      <point x="704.4" y="1548.6" type="line"/>
    </contour>
  </outline>
</glyph>
<glyph name="quotedblright" format="1">
  <advance width="1101.9"/>
  <unicode hex="201D"/>
  <outline>
    <contour>
      <point x="223.8" y="1100.9" type="line"/>
      <point x="359.1" y="1100.9" type="line"/>
      <point x="514.9" y="1548.6" type="line"/>
      <point x="329.6" y="1548.6" type="line"/>
    </contour>
    <contour>
      <point x="555.5" y="1100.9" type="line"/>
      <point x="690.9" y="1100.9" type="line"/>
      <point x="847.5" y="1548.6" type="line"/>
      <point x="662.4" y="1548.6" type="line"/>
    </contour>
  </outline>
</glyph>
<glyph name="quotedblbase" format="1">
  <advance width="1101.9"/>
  <unicode hex="201E"/>
  <outline>
    <contour>
      <point x="191.6" y="-256.1" type="line"/>
      <point x="327.9" y="-256.1" type="line"/>
      <point x="483.5" y="190.5" type="line"/>
      <point x="298.4" y="190.5" type="line"/>
    </contour>
    <contour>
      <point x="556.8" y="-256.1" type="line"/>
      <point x="692.1" y="-256.1" type="line"/>
      <point x="848.8" y="190.5" type="line"/>
      <point x="662.6" y="190.5" type="line"/>
    </contour>
  </outline>
</glyph>
<glyph name="daggerdbl" format="1">
  <advance width="1099.7"/>
  <unicode hex="2021"/>
  <outline>
    <contour>
      <point x="433.0" y="121.6" type="line"/>
      <point x="607.1" y="121.6" type="line"/>
      <point x="580.6" y="449.2" type="line"/>
      <point x="930.6" y="449.2" type="line"/>
      <point x="930.6" y="578.4" type="line"/>
      <point x="580.6" y="578.4" type="line"/>
      <point x="580.6" y="1006.7" type="line"/>
      <point x="937.7" y="1006.7" type="line"/>
      <point x="937.7" y="1141.1" type="line"/>
      <point x="587.7" y="1141.1" type="line"/>
      <point x="609.0" y="1482.9" type="line"/>
      <point x="435.1" y="1482.9" type="line"/>
      <point x="461.6" y="1141.1" type="line"/>
      <point x="111.6" y="1141.1" type="line"/>
      <point x="111.6" y="1006.7" type="line"/>
      <point x="455.4" y="1006.7" type="line"/>
      <point x="455.4" y="578.4" type="line"/>
      <point x="105.5" y="578.4" type="line"/>
      <point x="105.5" y="449.2" type="line"/>
      <point x="455.4" y="449.2" type="line"/>
    </contour>
  </outline>
</glyph>
<glyph name="bullet" format="1">
  <advance width="1064.0"/>
  <unicode hex="2022"/>
  <outline>
    <contour>
      <point x="510.9" y="414.3" type="curve" smooth="yes"/>
      <point x="613.7" y="414.3"/>
      <point x="698.0" y="456.0"/>
      <point x="754.0" y="508.9" type="curve" smooth="yes"/>
      <point x="809.0" y="559.7"/>
      <point x="856.8" y="637.1"/>
      <point x="856.8" y="735.8" type="curve" smooth="yes"/>
      <point x="856.8" y="778.5"/>
      <point x="847.7" y="818.3"/>
      <point x="829.3" y="856.9" type="curve" smooth="yes"/>
      <point x="779.4" y="963.7"/>
      <point x="670.6" y="1050.1"/>
      <point x="515.9" y="1050.1" type="curve" smooth="yes"/>
      <point x="470.2" y="1050.1"/>
      <point x="425.4" y="1042.1"/>
      <point x="383.7" y="1024.7" type="curve" smooth="yes"/>
      <point x="272.8" y="979.9"/>
      <point x="169.0" y="879.3"/>
      <point x="169.0" y="728.7" type="curve" smooth="yes"/>
      <point x="169.0" y="686.0"/>
      <point x="178.1" y="645.2"/>
      <point x="195.4" y="607.6" type="curve" smooth="yes"/>
      <point x="245.3" y="499.7"/>
      <point x="355.1" y="414.3"/>
    </contour>
  </outline>
</glyph>
<glyph name="ellipsis" format="1">
  <advance width="1743.3"/>
  <unicode hex="2026"/>
  <outline>
    <contour>
      <point x="171.1" y="-11.9" type="line"/>
      <point x="391.9" y="-11.9" type="line"/>
      <point x="391.9" y="201.8" type="line"/>
      <point x="171.1" y="201.8" type="line"/>
    </contour>
    <contour>
      <point x="720.5" y="-11.9" type="line"/>
      <point x="941.3" y="-11.9" type="line"/>
      <point x="941.3" y="201.8" type="line"/>
      <point x="720.5" y="201.8" type="line"/>
    </contour>
    <contour>
      <point x="1269.9" y="-11.9" type="line"/>
      <point x="1490.7" y="-11.9" type="line"/>
      <point x="1490.7" y="201.8" type="line"/>
      <point x="1269.9" y="201.8" type="line"/>
    </contour>
  </outline>
</glyph>
<glyph name="perthousand" format="1">
  <advance width="2567.6"/>
  <unicode hex="2030"/>
  <outline>
    <contour>
      <point x="421.5" y="751.3" type="curve" smooth="yes"/>
      <point x="475.4" y="751.3"/>
      <point x="524.2" y="759.4"/>
      <point x="566.9" y="777.8" type="curve" smooth="yes"/>
      <point x="686.0" y="827.6"/>
      <point x="766.4" y="942.6"/>
      <point x="766.4" y="1109.4" type="curve" smooth="yes"/>
      <point x="766.4" y="1333.3"/>
      <point x="647.3" y="1470.6"/>
      <point x="423.5" y="1470.6" type="curve" smooth="yes"/>
      <point x="368.5" y="1470.6"/>
      <point x="319.7" y="1461.5"/>
      <point x="277.0" y="1443.1" type="curve" smooth="yes"/>
      <point x="157.0" y="1393.3"/>
      <point x="78.6" y="1280.4"/>
      <point x="78.6" y="1112.5" type="curve" smooth="yes"/>
      <point x="78.6" y="891.7"/>
      <point x="199.7" y="751.3"/>
    </contour>
    <contour>
      <point x="1196.7" y="-29.0" type="curve" smooth="yes"/>
      <point x="1251.7" y="-29.0"/>
      <point x="1300.4" y="-19.9"/>
      <point x="1343.2" y="-1.5" type="curve" smooth="yes"/>
      <point x="1463.2" y="49.3"/>
      <point x="1541.6" y="161.2"/>
      <point x="1541.6" y="329.1" type="curve" smooth="yes"/>
      <point x="1541.6" y="551.8"/>
      <point x="1423.6" y="691.3"/>
      <point x="1200.7" y="691.3" type="curve" smooth="yes"/>
      <point x="1144.8" y="691.3"/>
      <point x="1094.9" y="682.2"/>
      <point x="1052.2" y="663.8" type="curve" smooth="yes"/>
      <point x="931.2" y="613.0"/>
      <point x="853.8" y="501.0"/>
      <point x="853.8" y="332.2" type="curve" smooth="yes"/>
      <point x="853.8" y="111.4"/>
      <point x="975.0" y="-29.0"/>
    </contour>
    <contour>
      <point x="1997.5" y="-29.0" type="curve" smooth="yes"/>
      <point x="2052.5" y="-29.0"/>
      <point x="2101.2" y="-19.9"/>
      <point x="2143.9" y="-1.5" type="curve" smooth="yes"/>
      <point x="2263.0" y="48.3"/>
      <point x="2343.4" y="162.2"/>
      <point x="2343.4" y="329.1" type="curve" smooth="yes"/>
      <point x="2343.4" y="552.9"/>
      <point x="2226.4" y="691.3"/>
      <point x="2002.5" y="691.3" type="curve" smooth="yes"/>
      <point x="1946.6" y="691.3"/>
      <point x="1896.7" y="682.2"/>
      <point x="1854.0" y="663.8" type="curve" smooth="yes"/>
      <point x="1733.0" y="613.0"/>
      <point x="1655.6" y="501.0"/>
      <point x="1655.6" y="332.2" type="curve" smooth="yes"/>
      <point x="1655.6" y="112.3"/>
      <point x="1776.7" y="-29.0"/>
    </contour>
    <contour>
      <point x="250.0" y="1085.0" type="curve" smooth="yes"/>
      <point x="234.0" y="962.6"/>
      <point x="280.2" y="878.8"/>
      <point x="402.6" y="894.8" type="curve" smooth="yes"/>
      <point x="520.5" y="910.2"/>
      <point x="580.7" y="1021.8"/>
      <point x="596.1" y="1138.8" type="curve" smooth="yes"/>
      <point x="611.8" y="1260.3"/>
      <point x="565.7" y="1344.1"/>
      <point x="445.1" y="1328.3" type="curve" smooth="yes"/>
      <point x="327.2" y="1313.0"/>
      <point x="265.4" y="1202.9"/>
    </contour>
    <contour>
      <point x="391.3" y="-22.9" type="line"/>
      <point x="271.5" y="-22.9" type="line"/>
      <point x="1225.4" y="1459.4" type="line"/>
      <point x="1342.0" y="1459.4" type="line"/>
    </contour>
    <contour>
      <point x="1199.7" y="85.9" type="curve" smooth="yes"/>
      <point x="1062.4" y="85.9"/>
      <point x="1001.4" y="193.8"/>
      <point x="1001.4" y="332.2" type="curve" smooth="yes"/>
      <point x="1001.4" y="467.5"/>
      <point x="1063.4" y="575.3"/>
      <point x="1198.8" y="575.3" type="curve" smooth="yes"/>
      <point x="1336.1" y="575.3"/>
      <point x="1395.2" y="469.5"/>
      <point x="1395.2" y="331.1" type="curve" smooth="yes"/>
      <point x="1395.2" y="197.8"/>
      <point x="1333.0" y="85.9"/>
    </contour>
    <contour>
      <point x="2001.5" y="85.9" type="curve" smooth="yes"/>
      <point x="1864.2" y="85.9"/>
      <point x="1803.1" y="193.8"/>
      <point x="1803.1" y="332.2" type="curve" smooth="yes"/>
      <point x="1803.1" y="467.5"/>
      <point x="1865.1" y="575.3"/>
      <point x="2000.5" y="575.3" type="curve" smooth="yes"/>
      <point x="2136.8" y="575.3"/>
      <point x="2197.8" y="467.4"/>
      <point x="2197.8" y="331.1" type="curve" smooth="yes"/>
      <point x="2197.8" y="196.8"/>
      <point x="2135.9" y="85.9"/>
    </contour>
  </outline>
</glyph>
<glyph name="guilsinglright" format="1">
  <advance width="690.8"/>
  <unicode hex="203A"/>
  <outline>
    <contour>
      <point x="110.8" y="184.0" type="line"/>
      <point x="270.6" y="184.0" type="line"/>
      <point x="552.4" y="561.5" type="line"/>
      <point x="276.7" y="940.0" type="line"/>
      <point x="119.0" y="940.0" type="line"/>
      <point x="377.4" y="561.5" type="line"/>
    </contour>
  </outline>
</glyph>
<glyph name="fraction" format="1">
  <advance width="396.0"/>
  <unicode hex="2044"/>
  <outline>
    <contour>
      <point x="-362.6" y="0.0" type="line"/>
      <point x="-209.0" y="0.0" type="line"/>
      <point x="709.7" y="1461.0" type="line"/>
      <point x="558.1" y="1461.0" type="line"/>
    </contour>
  </outline>
</glyph>
<glyph name="Euro" format="1">
  <advance width="1280.5"/>
  <unicode hex="20AC"/>
  <outline>
    <contour>
      <point x="768.5" y="-22.6" type="curve" smooth="yes"/>
      <point x="909.9" y="-22.6"/>
      <point x="1015.8" y="13.1"/>
      <point x="1106.3" y="75.1" type="curve"/>
      <point x="1107.3" y="256.2" type="line"/>
      <point x="1016.8" y="186.0"/>
      <point x="920.1" y="125.9"/>
      <point x="784.8" y="125.9" type="curve" smooth="yes"/>
      <point x="533.4" y="125.9"/>
      <point x="433.7" y="300.9"/>
      <point x="403.3" y="523.7" type="curve"/>
      <point x="954.7" y="523.7" type="line"/>
      <point x="974.1" y="664.1" type="line"/>
      <point x="389.0" y="664.1" type="line"/>
      <point x="387.0" y="713.0" type="line" smooth="yes"/>
      <point x="385.9" y="731.4"/>
      <point x="384.9" y="753.8"/>
      <point x="385.9" y="773.1" type="curve"/>
      <point x="385.9" y="785.2" type="line" smooth="yes"/>
      <point x="385.9" y="789.2"/>
      <point x="387.0" y="793.4"/>
      <point x="388.0" y="796.4" type="curve"/>
      <point x="988.2" y="796.4" type="line"/>
      <point x="1008.6" y="936.8" type="line"/>
      <point x="406.3" y="936.8" type="line"/>
      <point x="449.0" y="1134.3"/>
      <point x="554.8" y="1324.5"/>
      <point x="793.9" y="1324.5" type="curve" smooth="yes"/>
      <point x="934.3" y="1324.5"/>
      <point x="1031.0" y="1252.3"/>
      <point x="1093.0" y="1159.7" type="curve"/>
      <point x="1129.6" y="1352.0" type="line"/>
      <point x="1050.3" y="1427.2"/>
      <point x="948.6" y="1472.0"/>
      <point x="801.1" y="1472.0" type="curve" smooth="yes"/>
      <point x="720.7" y="1472.0"/>
      <point x="647.4" y="1458.8"/>
      <point x="583.3" y="1432.4" type="curve" smooth="yes"/>
      <point x="387.0" y="1352.0"/>
      <point x="268.9" y="1171.9"/>
      <point x="226.2" y="936.8" type="curve"/>
      <point x="103.1" y="936.8" type="line"/>
      <point x="80.7" y="796.4" type="line"/>
      <point x="206.9" y="796.4" type="line"/>
      <point x="205.9" y="773.0"/>
      <point x="204.8" y="752.7"/>
      <point x="204.8" y="730.3" type="curve" smooth="yes"/>
      <point x="204.8" y="704.8"/>
      <point x="205.9" y="682.5"/>
      <point x="208.0" y="664.1" type="curve"/>
      <point x="104.1" y="664.1" type="line"/>
      <point x="83.8" y="523.7" type="line"/>
      <point x="221.1" y="523.7" type="line"/>
      <point x="259.8" y="211.4"/>
      <point x="418.5" y="-22.6"/>
    </contour>
  </outline>
</glyph>
<glyph name="partialdiff" format="1">
  <advance width="1255.8"/>
  <unicode hex="2202"/>
  <outline>
    <contour>
      <point x="505.5" y="-25.8" type="curve" smooth="yes"/>
      <point x="571.6" y="-25.8"/>
      <point x="633.7" y="-13.7"/>
      <point x="688.6" y="9.8" type="curve" smooth="yes"/>
      <point x="804.6" y="59.7"/>
      <point x="890.1" y="147.1"/>
      <point x="952.1" y="255.0" type="curve" smooth="yes"/>
      <point x="1042.6" y="412.7"/>
      <point x="1097.6" y="620.2"/>
      <point x="1097.6" y="865.4" type="curve" smooth="yes"/>
      <point x="1097.6" y="984.5"/>
      <point x="1086.4" y="1087.2"/>
      <point x="1063.0" y="1174.7" type="curve" smooth="yes"/>
      <point x="1005.0" y="1395.5"/>
      <point x="872.7" y="1558.3"/>
      <point x="603.1" y="1558.3" type="curve" smooth="yes"/>
      <point x="479.0" y="1558.3"/>
      <point x="366.1" y="1516.6"/>
      <point x="289.8" y="1465.7" type="curve"/>
      <point x="300.9" y="1325.3" type="line"/>
      <point x="372.1" y="1373.1"/>
      <point x="463.8" y="1422.0"/>
      <point x="579.7" y="1422.0" type="curve" smooth="yes"/>
      <point x="633.7" y="1422.0"/>
      <point x="680.4" y="1410.8"/>
      <point x="723.2" y="1388.4" type="curve" smooth="yes"/>
      <point x="861.5" y="1314.1"/>
      <point x="923.6" y="1141.2"/>
      <point x="923.6" y="925.5" type="curve" smooth="yes"/>
      <point x="923.6" y="904.1"/>
      <point x="922.6" y="869.5"/>
      <point x="922.6" y="849.2" type="curve"/>
      <point x="851.4" y="941.8"/>
      <point x="753.6" y="1018.1"/>
      <point x="601.1" y="1018.1" type="curve" smooth="yes"/>
      <point x="529.8" y="1018.1"/>
      <point x="463.8" y="1002.7"/>
      <point x="401.7" y="972.2" type="curve" smooth="yes"/>
      <point x="221.6" y="883.8"/>
      <point x="89.3" y="691.5"/>
      <point x="89.3" y="425.9" type="curve" smooth="yes"/>
      <point x="89.3" y="361.8"/>
      <point x="98.4" y="302.8"/>
      <point x="115.7" y="247.8" type="curve" smooth="yes"/>
      <point x="167.6" y="87.0"/>
      <point x="293.9" y="-25.8"/>
    </contour>
    <contour>
      <point x="508.5" y="111.5" type="curve" smooth="yes"/>
      <point x="470.8" y="111.5"/>
      <point x="436.2" y="118.7"/>
      <point x="405.8" y="133.9" type="curve" smooth="yes"/>
      <point x="312.2" y="179.7"/>
      <point x="261.3" y="283.5"/>
      <point x="261.3" y="422.9" type="curve" smooth="yes"/>
      <point x="261.3" y="555.1"/>
      <point x="306.0" y="668.1"/>
      <point x="366.0" y="745.4" type="curve" smooth="yes"/>
      <point x="421.0" y="816.7"/>
      <point x="507.5" y="882.7"/>
      <point x="624.5" y="882.7" type="curve" smooth="yes"/>
      <point x="660.1" y="882.7"/>
      <point x="692.6" y="877.6"/>
      <point x="722.1" y="865.4" type="curve" smooth="yes"/>
      <point x="810.6" y="829.8"/>
      <point x="872.7" y="755.6"/>
      <point x="905.3" y="665.0" type="curve"/>
      <point x="888.0" y="514.4"/>
      <point x="840.1" y="374.0"/>
      <point x="773.0" y="274.3" type="curve" smooth="yes"/>
      <point x="717.1" y="191.9"/>
      <point x="633.6" y="111.5"/>
    </contour>
  </outline>
</glyph>
<glyph name="summation" format="1">
  <advance width="1360.2"/>
  <unicode hex="2211"/>
  <outline>
    <contour>
      <point x="61.4" y="-354.1" type="line"/>
      <point x="1244.6" y="-354.1" type="line"/>
      <point x="1244.6" y="-203.5" type="line"/>
      <point x="302.4" y="-203.5" type="line"/>
      <point x="917.0" y="551.4" type="line"/>
      <point x="334.0" y="1284.0" type="line"/>
      <point x="1198.8" y="1284.0" type="line"/>
      <point x="1198.8" y="1428.4" type="line"/>
      <point x="83.7" y="1428.4" type="line"/>
      <point x="83.7" y="1331.9" type="line"/>
      <point x="712.4" y="542.3" type="line"/>
      <point x="61.4" y="-262.5" type="line"/>
    </contour>
  </outline>
</glyph>
<glyph name="approxequal" format="1">
  <advance width="1453.8"/>
  <unicode hex="2248"/>
  <outline>
    <contour>
      <point x="281.6" y="280.9" type="line"/>
      <point x="308.0" y="370.4"/>
      <point x="356.9" y="448.8"/>
      <point x="465.8" y="448.8" type="curve" smooth="yes"/>
      <point x="494.3" y="448.8"/>
      <point x="523.7" y="442.6"/>
      <point x="554.3" y="429.4" type="curve" smooth="yes"/>
      <point x="607.1" y="407.0"/>
      <point x="677.4" y="364.2"/>
      <point x="728.2" y="337.8" type="curve" smooth="yes"/>
      <point x="784.1" y="309.3"/>
      <point x="842.2" y="281.9"/>
      <point x="922.6" y="281.9" type="curve" smooth="yes"/>
      <point x="1099.6" y="281.9"/>
      <point x="1183.0" y="396.8"/>
      <point x="1216.6" y="542.4" type="curve"/>
      <point x="1104.7" y="570.9" type="line"/>
      <point x="1073.2" y="486.4"/>
      <point x="1030.4" y="401.9"/>
      <point x="928.7" y="401.9" type="curve" smooth="yes"/>
      <point x="899.2" y="401.9"/>
      <point x="867.7" y="411.2"/>
      <point x="833.1" y="428.4" type="curve" smooth="yes"/>
      <point x="798.5" y="445.8"/>
      <point x="761.8" y="465.1"/>
      <point x="723.1" y="486.4" type="curve" smooth="yes"/>
      <point x="654.9" y="524.1"/>
      <point x="568.4" y="570.9"/>
      <point x="468.8" y="570.9" type="curve" smooth="yes"/>
      <point x="296.8" y="570.9"/>
      <point x="201.2" y="455.9"/>
      <point x="165.6" y="309.4" type="curve"/>
    </contour>
    <contour>
      <point x="280.5" y="660.4" type="line"/>
      <point x="307.0" y="748.9"/>
      <point x="354.8" y="828.2"/>
      <point x="462.6" y="828.2" type="curve" smooth="yes"/>
      <point x="491.2" y="828.2"/>
      <point x="520.7" y="822.1"/>
      <point x="550.2" y="808.9" type="curve" smooth="yes"/>
      <point x="603.1" y="785.5"/>
      <point x="673.3" y="742.7"/>
      <point x="725.2" y="716.3" type="curve" smooth="yes"/>
      <point x="783.2" y="686.8"/>
      <point x="839.1" y="660.4"/>
      <point x="920.5" y="660.4" type="curve" smooth="yes"/>
      <point x="1096.5" y="660.4"/>
      <point x="1184.0" y="773.4"/>
      <point x="1214.6" y="920.9" type="curve"/>
      <point x="1102.7" y="949.4" type="line"/>
      <point x="1072.1" y="861.9"/>
      <point x="1029.4" y="780.4"/>
      <point x="926.6" y="780.4" type="curve" smooth="yes"/>
      <point x="899.1" y="780.4"/>
      <point x="869.7" y="787.6"/>
      <point x="837.1" y="800.8" type="curve" smooth="yes"/>
      <point x="727.3" y="845.6"/>
      <point x="616.3" y="948.3"/>
      <point x="466.7" y="948.3" type="curve" smooth="yes"/>
      <point x="292.7" y="948.3"/>
      <point x="197.1" y="837.5"/>
      <point x="163.5" y="687.9" type="curve"/>
    </contour>
  </outline>
</glyph>
<glyph name="notequal" format="1">
  <advance width="1453.8"/>
  <unicode hex="2260"/>
  <outline>
    <contour>
      <point x="474.3" y="49.5" type="line"/>
      <point x="616.9" y="333.3" type="line"/>
      <point x="1212.0" y="333.3" type="line"/>
      <point x="1202.8" y="455.5" type="line"/>
      <point x="676.8" y="455.5" type="line"/>
      <point x="827.4" y="743.4" type="line"/>
      <point x="1212.0" y="743.4" type="line"/>
      <point x="1201.8" y="866.5" type="line"/>
      <point x="886.4" y="866.5" type="line"/>
      <point x="1015.6" y="1126.9" type="line"/>
      <point x="888.5" y="1145.3" type="line"/>
      <point x="750.1" y="866.5" type="line"/>
      <point x="172.2" y="866.5" type="line"/>
      <point x="182.3" y="743.4" type="line"/>
      <point x="692.1" y="743.4" type="line"/>
      <point x="542.6" y="455.5" type="line"/>
      <point x="173.2" y="455.5" type="line"/>
      <point x="182.3" y="333.3" type="line"/>
      <point x="480.4" y="333.3" type="line"/>
      <point x="350.3" y="67.8" type="line"/>
    </contour>
  </outline>
</glyph>
<glyph name="greaterequal" format="1">
  <advance width="1452.7"/>
  <unicode hex="2265"/>
  <outline>
    <contour>
      <point x="204.8" y="222.3" type="line"/>
      <point x="1181.5" y="680.1" type="line"/>
      <point x="1181.5" y="761.5" type="line"/>
      <point x="208.8" y="1242.8" type="line"/>
      <point x="208.8" y="1100.4" type="line"/>
      <point x="1000.4" y="719.8" type="line"/>
      <point x="204.8" y="365.8" type="line"/>
    </contour>
    <contour>
      <point x="173.3" y="9.6" type="line"/>
      <point x="1200.9" y="9.6" type="line"/>
      <point x="1200.9" y="133.8" type="line"/>
      <point x="173.3" y="133.8" type="line"/>
    </contour>
  </outline>
</glyph>
<glyph name="uniF6C3" format="1">
  <advance width="644.6"/>
  <unicode hex="F6C3"/>
  <outline>
    <contour>
      <point x="118.4" y="-648.9" type="line"/>
      <point x="251.6" y="-648.9" type="line"/>
      <point x="417.4" y="-177.9" type="line"/>
      <point x="227.2" y="-177.9" type="line"/>
    </contour>
  </outline>
</glyph>
<glyph name="J.alt" format="1">
  <advance width="1010.4"/>
  <outline>
    <contour>
      <point x="330.7" y="-24.7" type="curve" smooth="yes"/>
      <point x="398.9" y="-24.7"/>
      <point x="459.9" y="-13.6"/>
      <point x="514.9" y="9.9" type="curve" smooth="yes"/>
      <point x="686.8" y="82.1"/>
      <point x="772.3" y="259.1"/>
      <point x="772.3" y="506.4" type="curve" smooth="yes"/>
      <point x="772.3" y="1480.0" type="line"/>
      <point x="597.3" y="1480.0" type="line"/>
      <point x="597.3" y="495.1" type="line" smooth="yes"/>
      <point x="597.3" y="299.8"/>
      <point x="530.2" y="125.8"/>
      <point x="335.9" y="125.8" type="curve" smooth="yes"/>
      <point x="245.3" y="125.8"/>
      <point x="183.2" y="157.4"/>
      <point x="128.3" y="199.1" type="curve"/>
      <point x="76.4" y="81.1" type="line"/>
      <point x="137.5" y="20.0"/>
      <point x="215.8" y="-24.7"/>
    </contour>
  </outline>
</glyph>
<glyph name="a.alt" format="1">
  <advance width="1311.8"/>
  <outline>
    <contour>
      <point x="567.8" y="-24.7" type="curve" smooth="yes"/>
      <point x="691.9" y="-24.7"/>
      <point x="851.7" y="11.8"/>
      <point x="946.3" y="167.5" type="curve"/>
      <point x="973.8" y="45.4"/>
      <point x="1093.8" y="-5.4"/>
      <point x="1182.3" y="-5.4" type="curve"/>
      <point x="1216.9" y="140.1" type="line"/>
      <point x="1164.0" y="140.1"/>
      <point x="1089.7" y="171.5"/>
      <point x="1089.7" y="289.6" type="curve" smooth="yes"/>
      <point x="1089.7" y="526.7" type="line" smooth="yes"/>
      <point x="1089.7" y="942.9"/>
      <point x="884.1" y="1068.9"/>
      <point x="629.8" y="1068.9" type="curve" smooth="yes"/>
      <point x="294.1" y="1068.9"/>
      <point x="94.7" y="857.4"/>
      <point x="94.7" y="501.3" type="curve" smooth="yes"/>
      <point x="94.7" y="194.0"/>
      <point x="291.0" y="-24.7"/>
    </contour>
    <contour>
      <point x="587.1" y="117.7" type="curve" smooth="yes"/>
      <point x="398.9" y="117.7"/>
      <point x="264.6" y="281.5"/>
      <point x="264.6" y="511.4" type="curve" smooth="yes"/>
      <point x="264.6" y="773.0"/>
      <point x="402.0" y="927.6"/>
      <point x="633.0" y="927.6" type="curve" smooth="yes"/>
      <point x="817.1" y="927.6"/>
      <point x="922.8" y="826.9"/>
      <point x="922.8" y="531.8" type="curve" smooth="yes"/>
      <point x="922.8" y="275.4"/>
      <point x="847.6" y="117.7"/>
    </contour>
  </outline>
</glyph>
<glyph name="e.alt" format="1">
  <advance width="1154.7"/>
  <outline>
    <contour>
      <point x="604.7" y="-20.5" type="curve" smooth="yes"/>
      <point x="776.7" y="-20.5"/>
      <point x="916.1" y="45.7"/>
      <point x="1036.2" y="171.8" type="curve"/>
      <point x="951.7" y="279.7" type="line"/>
      <point x="876.4" y="189.1"/>
      <point x="753.3" y="124.0"/>
      <point x="611.9" y="124.0" type="curve" smooth="yes"/>
      <point x="475.6" y="124.0"/>
      <point x="345.3" y="194.2"/>
      <point x="299.6" y="376.4" type="curve"/>
      <point x="671.9" y="431.3"/>
      <point x="968.0" y="513.7"/>
      <point x="968.0" y="762.9" type="curve" smooth="yes"/>
      <point x="968.0" y="932.8"/>
      <point x="827.7" y="1073.3"/>
      <point x="607.8" y="1073.3" type="curve" smooth="yes"/>
      <point x="279.3" y="1073.3"/>
      <point x="101.2" y="817.9"/>
      <point x="101.2" y="523.9" type="curve" smooth="yes"/>
      <point x="101.2" y="177.9"/>
      <point x="336.1" y="-20.5"/>
    </contour>
    <contour>
      <point x="287.3" y="497.4" type="curve"/>
      <point x="285.3" y="514.7"/>
      <point x="284.3" y="531.0"/>
      <point x="284.3" y="547.3" type="curve" smooth="yes"/>
      <point x="284.3" y="746.7"/>
      <point x="404.4" y="927.8"/>
      <point x="608.9" y="927.8" type="curve" smooth="yes"/>
      <point x="732.0" y="927.8"/>
      <point x="802.2" y="859.6"/>
      <point x="802.2" y="767.0" type="curve" smooth="yes"/>
      <point x="802.2" y="603.2"/>
      <point x="578.3" y="542.2"/>
    </contour>
  </outline>
</glyph>
<glyph name="k.alt" format="1">
  <advance width="1164.3"/>
  <outline>
    <contour>
      <point x="191.6" y="0.0" type="line"/>
      <point x="318.8" y="0.0" type="line"/>
      <point x="420.5" y="151.5"/>
      <point x="523.1" y="302.0"/>
      <point x="624.9" y="452.6" type="curve"/>
      <point x="910.9" y="0.0" type="line"/>
      <point x="1095.0" y="0.0" type="line"/>
      <point x="717.6" y="590.0" type="line"/>
      <point x="820.3" y="741.6"/>
      <point x="923.1" y="892.3"/>
      <point x="1025.8" y="1043.9" type="curve"/>
      <point x="843.7" y="1043.9" type="line"/>
      <point x="359.4" y="313.4" type="line"/>
      <point x="359.4" y="1552.5" type="line"/>
      <point x="191.6" y="1552.5" type="line"/>
    </contour>
  </outline>
</glyph>
<glyph name="n.alt" format="1">
  <advance width="1359.1"/>
  <outline>
    <contour>
      <point x="1124.2" y="-25.8" type="curve"/>
      <point x="1160.7" y="102.4" type="line"/>
      <point x="1084.4" y="117.7"/>
      <point x="1073.2" y="143.2"/>
      <point x="1073.2" y="258.1" type="curve" smooth="yes"/>
      <point x="1073.2" y="273.3" type="line"/>
      <point x="1075.3" y="575.5" type="line"/>
      <point x="1075.3" y="585.7" type="line" smooth="yes"/>
      <point x="1075.3" y="880.8"/>
      <point x="985.8" y="1067.8"/>
      <point x="687.7" y="1067.8" type="curve" smooth="yes"/>
      <point x="516.7" y="1067.8"/>
      <point x="432.3" y="1003.7"/>
      <point x="358.0" y="897.9" type="curve"/>
      <point x="335.6" y="1042.4" type="line"/>
      <point x="165.7" y="1042.4" type="line"/>
      <point x="171.9" y="992.6"/>
      <point x="192.2" y="796.3"/>
      <point x="192.2" y="709.8" type="curve" smooth="yes"/>
      <point x="192.2" y="-1.4" type="line"/>
      <point x="360.0" y="-1.4" type="line"/>
      <point x="360.0" y="662.0" type="line" smooth="yes"/>
      <point x="360.0" y="811.5"/>
      <point x="502.5" y="925.5"/>
      <point x="659.2" y="925.5" type="curve" smooth="yes"/>
      <point x="873.9" y="925.5"/>
      <point x="907.4" y="802.4"/>
      <point x="907.4" y="593.8" type="curve" smooth="yes"/>
      <point x="907.4" y="580.5" type="line"/>
      <point x="905.4" y="268.3" type="line"/>
      <point x="905.4" y="250.9" type="line" smooth="yes"/>
      <point x="905.4" y="61.7"/>
      <point x="932.9" y="-3.4"/>
    </contour>
  </outline>
</glyph>
<glyph name="nine.alt" format="1">
  <advance width="1280.5"/>
  <outline>
    <contour>
      <point x="528.1" y="-23.8" type="curve" smooth="yes"/>
      <point x="622.7" y="-23.8"/>
      <point x="706.2" y="-5.4"/>
      <point x="779.4" y="33.3" type="curve" smooth="yes"/>
      <point x="1006.2" y="153.3"/>
      <point x="1117.2" y="421.8"/>
      <point x="1117.2" y="769.8" type="curve" smooth="yes"/>
      <point x="1117.2" y="883.8"/>
      <point x="1106.0" y="985.5"/>
      <point x="1082.6" y="1073.0" type="curve" smooth="yes"/>
      <point x="1022.5" y="1303.0"/>
      <point x="879.2" y="1476.9"/>
      <point x="596.3" y="1476.9" type="curve" smooth="yes"/>
      <point x="520.0" y="1476.9"/>
      <point x="449.8" y="1464.7"/>
      <point x="387.7" y="1440.3" type="curve" smooth="yes"/>
      <point x="219.8" y="1374.1"/>
      <point x="94.7" y="1227.7"/>
      <point x="94.7" y="999.8" type="curve" smooth="yes"/>
      <point x="94.7" y="932.7"/>
      <point x="105.9" y="870.5"/>
      <point x="127.3" y="814.6" type="curve" smooth="yes"/>
      <point x="190.4" y="651.9"/>
      <point x="336.8" y="540.9"/>
      <point x="559.6" y="540.9" type="curve" smooth="yes"/>
      <point x="742.8" y="540.9"/>
      <point x="865.9" y="600.9"/>
      <point x="939.1" y="718.0" type="curve"/>
      <point x="939.1" y="693.6" type="line"/>
      <point x="936.1" y="534.9"/>
      <point x="897.4" y="391.4"/>
      <point x="832.3" y="291.7" type="curve" smooth="yes"/>
      <point x="772.2" y="198.1"/>
      <point x="675.7" y="120.6"/>
      <point x="531.2" y="120.6" type="curve" smooth="yes"/>
      <point x="413.1" y="120.6"/>
      <point x="318.5" y="158.4"/>
      <point x="246.2" y="236.7" type="curve"/>
      <point x="191.4" y="121.8" type="line"/>
      <point x="260.6" y="33.3"/>
      <point x="373.4" y="-23.8"/>
    </contour>
    <contour>
      <point x="587.1" y="683.4" type="curve" smooth="yes"/>
      <point x="384.6" y="683.4"/>
      <point x="273.8" y="804.5"/>
      <point x="273.8" y="1004.8" type="curve" smooth="yes"/>
      <point x="273.8" y="1051.7"/>
      <point x="280.9" y="1095.5"/>
      <point x="296.2" y="1135.2" type="curve" smooth="yes"/>
      <point x="337.9" y="1248.1"/>
      <point x="435.5" y="1333.5"/>
      <point x="588.2" y="1333.5" type="curve" smooth="yes"/>
      <point x="642.1" y="1333.5"/>
      <point x="689.9" y="1323.3"/>
      <point x="731.6" y="1304.0" type="curve" smooth="yes"/>
      <point x="840.5" y="1252.1"/>
      <point x="926.9" y="1143.3"/>
      <point x="926.9" y="986.6" type="curve" smooth="yes"/>
      <point x="926.9" y="939.8"/>
      <point x="917.9" y="898.0"/>
      <point x="899.5" y="860.4" type="curve" smooth="yes"/>
      <point x="848.7" y="755.6"/>
      <point x="739.7" y="683.4"/>
    </contour>
  </outline>
</glyph>
<glyph name="u.alt" format="1">
  <advance width="1307.4"/>
  <outline>
    <contour>
      <point x="546.2" y="-25.8" type="curve" smooth="yes"/>
      <point x="707.0" y="-25.8"/>
      <point x="828.2" y="37.3"/>
      <point x="911.6" y="156.3" type="curve"/>
      <point x="939.1" y="43.4"/>
      <point x="1038.7" y="-5.5"/>
      <point x="1137.4" y="-5.5" type="curve"/>
      <point x="1173.0" y="140.1" type="line"/>
      <point x="1120.1" y="140.1"/>
      <point x="1046.8" y="171.6"/>
      <point x="1046.8" y="289.6" type="curve" smooth="yes"/>
      <point x="1046.8" y="1042.4" type="line"/>
      <point x="879.0" y="1042.4" type="line"/>
      <point x="879.0" y="423.8" type="line" smooth="yes"/>
      <point x="879.0" y="224.4"/>
      <point x="718.2" y="118.7"/>
      <point x="571.7" y="118.7" type="curve" smooth="yes"/>
      <point x="448.6" y="118.7"/>
      <point x="336.8" y="184.8"/>
      <point x="336.8" y="384.2" type="curve" smooth="yes"/>
      <point x="336.8" y="604.0" type="line" smooth="yes"/>
      <point x="336.8" y="925.6"/>
      <point x="297.0" y="1042.4"/>
      <point x="297.0" y="1042.4" type="curve"/>
      <point x="129.2" y="1042.4" type="line"/>
      <point x="129.2" y="1042.4"/>
      <point x="168.8" y="884.8"/>
      <point x="168.8" y="590.7" type="curve" smooth="yes"/>
      <point x="168.8" y="384.2" type="line" smooth="yes"/>
      <point x="168.8" y="94.2"/>
      <point x="348.9" y="-25.8"/>
    </contour>
  </outline>
</glyph>
